<?xml version="1.0" encoding="utf-8" standalone="no"?>
<!DOCTYPE svg PUBLIC "-//W3C//DTD SVG 1.1//EN"
  "http://www.w3.org/Graphics/SVG/1.1/DTD/svg11.dtd">
<!-- Created with matplotlib (https://matplotlib.org/) -->
<svg height="359.597575pt" version="1.1" viewBox="0 0 414.46375 359.597575" width="414.46375pt" xmlns="http://www.w3.org/2000/svg" xmlns:xlink="http://www.w3.org/1999/xlink">
 <metadata>
  <rdf:RDF xmlns:cc="http://creativecommons.org/ns#" xmlns:dc="http://purl.org/dc/elements/1.1/" xmlns:rdf="http://www.w3.org/1999/02/22-rdf-syntax-ns#">
   <cc:Work>
    <dc:type rdf:resource="http://purl.org/dc/dcmitype/StillImage"/>
    <dc:date>2021-02-18T12:02:53.367915</dc:date>
    <dc:format>image/svg+xml</dc:format>
    <dc:creator>
     <cc:Agent>
      <dc:title>Matplotlib v3.3.2, https://matplotlib.org/</dc:title>
     </cc:Agent>
    </dc:creator>
   </cc:Work>
  </rdf:RDF>
 </metadata>
 <defs>
  <style type="text/css">*{stroke-linecap:butt;stroke-linejoin:round;}</style>
 </defs>
 <g id="figure_1">
  <g id="patch_1">
   <path d="M 0 359.597575 
L 414.46375 359.597575 
L 414.46375 0 
L 0 0 
z
" style="fill:#ffffff;"/>
  </g>
  <g id="axes_1">
   <g id="patch_2">
    <path d="M 50.14375 288.430125 
L 407.26375 288.430125 
L 407.26375 22.318125 
L 50.14375 22.318125 
z
" style="fill:#ffffff;"/>
   </g>
   <g id="matplotlib.axis_1">
    <g id="xtick_1">
     <g id="line2d_1">
      <defs>
       <path d="M 0 0 
L 0 3.5 
" id="mf5f53a5112" style="stroke:#000000;stroke-width:0.8;"/>
      </defs>
      <g>
       <use style="stroke:#000000;stroke-width:0.8;" x="65.771906" xlink:href="#mf5f53a5112" y="288.430125"/>
      </g>
     </g>
     <g id="text_1">
      <!-- 0 -->
      <g transform="translate(62.590656 303.028562)scale(0.1 -0.1)">
       <defs>
        <path d="M 31.78125 66.40625 
Q 24.171875 66.40625 20.328125 58.90625 
Q 16.5 51.421875 16.5 36.375 
Q 16.5 21.390625 20.328125 13.890625 
Q 24.171875 6.390625 31.78125 6.390625 
Q 39.453125 6.390625 43.28125 13.890625 
Q 47.125 21.390625 47.125 36.375 
Q 47.125 51.421875 43.28125 58.90625 
Q 39.453125 66.40625 31.78125 66.40625 
z
M 31.78125 74.21875 
Q 44.046875 74.21875 50.515625 64.515625 
Q 56.984375 54.828125 56.984375 36.375 
Q 56.984375 17.96875 50.515625 8.265625 
Q 44.046875 -1.421875 31.78125 -1.421875 
Q 19.53125 -1.421875 13.0625 8.265625 
Q 6.59375 17.96875 6.59375 36.375 
Q 6.59375 54.828125 13.0625 64.515625 
Q 19.53125 74.21875 31.78125 74.21875 
z
" id="DejaVuSans-48"/>
       </defs>
       <use xlink:href="#DejaVuSans-48"/>
      </g>
     </g>
    </g>
    <g id="xtick_2">
     <g id="line2d_2">
      <g>
       <use style="stroke:#000000;stroke-width:0.8;" x="126.228991" xlink:href="#mf5f53a5112" y="288.430125"/>
      </g>
     </g>
     <g id="text_2">
      <!-- 100 -->
      <g transform="translate(116.685241 303.028562)scale(0.1 -0.1)">
       <defs>
        <path d="M 12.40625 8.296875 
L 28.515625 8.296875 
L 28.515625 63.921875 
L 10.984375 60.40625 
L 10.984375 69.390625 
L 28.421875 72.90625 
L 38.28125 72.90625 
L 38.28125 8.296875 
L 54.390625 8.296875 
L 54.390625 0 
L 12.40625 0 
z
" id="DejaVuSans-49"/>
       </defs>
       <use xlink:href="#DejaVuSans-49"/>
       <use x="63.623047" xlink:href="#DejaVuSans-48"/>
       <use x="127.246094" xlink:href="#DejaVuSans-48"/>
      </g>
     </g>
    </g>
    <g id="xtick_3">
     <g id="line2d_3">
      <g>
       <use style="stroke:#000000;stroke-width:0.8;" x="186.686076" xlink:href="#mf5f53a5112" y="288.430125"/>
      </g>
     </g>
     <g id="text_3">
      <!-- 200 -->
      <g transform="translate(177.142326 303.028562)scale(0.1 -0.1)">
       <defs>
        <path d="M 19.1875 8.296875 
L 53.609375 8.296875 
L 53.609375 0 
L 7.328125 0 
L 7.328125 8.296875 
Q 12.9375 14.109375 22.625 23.890625 
Q 32.328125 33.6875 34.8125 36.53125 
Q 39.546875 41.84375 41.421875 45.53125 
Q 43.3125 49.21875 43.3125 52.78125 
Q 43.3125 58.59375 39.234375 62.25 
Q 35.15625 65.921875 28.609375 65.921875 
Q 23.96875 65.921875 18.8125 64.3125 
Q 13.671875 62.703125 7.8125 59.421875 
L 7.8125 69.390625 
Q 13.765625 71.78125 18.9375 73 
Q 24.125 74.21875 28.421875 74.21875 
Q 39.75 74.21875 46.484375 68.546875 
Q 53.21875 62.890625 53.21875 53.421875 
Q 53.21875 48.921875 51.53125 44.890625 
Q 49.859375 40.875 45.40625 35.40625 
Q 44.1875 33.984375 37.640625 27.21875 
Q 31.109375 20.453125 19.1875 8.296875 
z
" id="DejaVuSans-50"/>
       </defs>
       <use xlink:href="#DejaVuSans-50"/>
       <use x="63.623047" xlink:href="#DejaVuSans-48"/>
       <use x="127.246094" xlink:href="#DejaVuSans-48"/>
      </g>
     </g>
    </g>
    <g id="xtick_4">
     <g id="line2d_4">
      <g>
       <use style="stroke:#000000;stroke-width:0.8;" x="247.143161" xlink:href="#mf5f53a5112" y="288.430125"/>
      </g>
     </g>
     <g id="text_4">
      <!-- 300 -->
      <g transform="translate(237.599411 303.028562)scale(0.1 -0.1)">
       <defs>
        <path d="M 40.578125 39.3125 
Q 47.65625 37.796875 51.625 33 
Q 55.609375 28.21875 55.609375 21.1875 
Q 55.609375 10.40625 48.1875 4.484375 
Q 40.765625 -1.421875 27.09375 -1.421875 
Q 22.515625 -1.421875 17.65625 -0.515625 
Q 12.796875 0.390625 7.625 2.203125 
L 7.625 11.71875 
Q 11.71875 9.328125 16.59375 8.109375 
Q 21.484375 6.890625 26.8125 6.890625 
Q 36.078125 6.890625 40.9375 10.546875 
Q 45.796875 14.203125 45.796875 21.1875 
Q 45.796875 27.640625 41.28125 31.265625 
Q 36.765625 34.90625 28.71875 34.90625 
L 20.21875 34.90625 
L 20.21875 43.015625 
L 29.109375 43.015625 
Q 36.375 43.015625 40.234375 45.921875 
Q 44.09375 48.828125 44.09375 54.296875 
Q 44.09375 59.90625 40.109375 62.90625 
Q 36.140625 65.921875 28.71875 65.921875 
Q 24.65625 65.921875 20.015625 65.03125 
Q 15.375 64.15625 9.8125 62.3125 
L 9.8125 71.09375 
Q 15.4375 72.65625 20.34375 73.4375 
Q 25.25 74.21875 29.59375 74.21875 
Q 40.828125 74.21875 47.359375 69.109375 
Q 53.90625 64.015625 53.90625 55.328125 
Q 53.90625 49.265625 50.4375 45.09375 
Q 46.96875 40.921875 40.578125 39.3125 
z
" id="DejaVuSans-51"/>
       </defs>
       <use xlink:href="#DejaVuSans-51"/>
       <use x="63.623047" xlink:href="#DejaVuSans-48"/>
       <use x="127.246094" xlink:href="#DejaVuSans-48"/>
      </g>
     </g>
    </g>
    <g id="xtick_5">
     <g id="line2d_5">
      <g>
       <use style="stroke:#000000;stroke-width:0.8;" x="307.600246" xlink:href="#mf5f53a5112" y="288.430125"/>
      </g>
     </g>
     <g id="text_5">
      <!-- 400 -->
      <g transform="translate(298.056496 303.028562)scale(0.1 -0.1)">
       <defs>
        <path d="M 37.796875 64.3125 
L 12.890625 25.390625 
L 37.796875 25.390625 
z
M 35.203125 72.90625 
L 47.609375 72.90625 
L 47.609375 25.390625 
L 58.015625 25.390625 
L 58.015625 17.1875 
L 47.609375 17.1875 
L 47.609375 0 
L 37.796875 0 
L 37.796875 17.1875 
L 4.890625 17.1875 
L 4.890625 26.703125 
z
" id="DejaVuSans-52"/>
       </defs>
       <use xlink:href="#DejaVuSans-52"/>
       <use x="63.623047" xlink:href="#DejaVuSans-48"/>
       <use x="127.246094" xlink:href="#DejaVuSans-48"/>
      </g>
     </g>
    </g>
    <g id="xtick_6">
     <g id="line2d_6">
      <g>
       <use style="stroke:#000000;stroke-width:0.8;" x="368.05733" xlink:href="#mf5f53a5112" y="288.430125"/>
      </g>
     </g>
     <g id="text_6">
      <!-- 500 -->
      <g transform="translate(358.51358 303.028562)scale(0.1 -0.1)">
       <defs>
        <path d="M 10.796875 72.90625 
L 49.515625 72.90625 
L 49.515625 64.59375 
L 19.828125 64.59375 
L 19.828125 46.734375 
Q 21.96875 47.46875 24.109375 47.828125 
Q 26.265625 48.1875 28.421875 48.1875 
Q 40.625 48.1875 47.75 41.5 
Q 54.890625 34.8125 54.890625 23.390625 
Q 54.890625 11.625 47.5625 5.09375 
Q 40.234375 -1.421875 26.90625 -1.421875 
Q 22.3125 -1.421875 17.546875 -0.640625 
Q 12.796875 0.140625 7.71875 1.703125 
L 7.71875 11.625 
Q 12.109375 9.234375 16.796875 8.0625 
Q 21.484375 6.890625 26.703125 6.890625 
Q 35.15625 6.890625 40.078125 11.328125 
Q 45.015625 15.765625 45.015625 23.390625 
Q 45.015625 31 40.078125 35.4375 
Q 35.15625 39.890625 26.703125 39.890625 
Q 22.75 39.890625 18.8125 39.015625 
Q 14.890625 38.140625 10.796875 36.28125 
z
" id="DejaVuSans-53"/>
       </defs>
       <use xlink:href="#DejaVuSans-53"/>
       <use x="63.623047" xlink:href="#DejaVuSans-48"/>
       <use x="127.246094" xlink:href="#DejaVuSans-48"/>
      </g>
     </g>
    </g>
    <g id="text_7">
     <!-- frames -->
     <g transform="translate(211.2725 316.706687)scale(0.1 -0.1)">
      <defs>
       <path d="M 37.109375 75.984375 
L 37.109375 68.5 
L 28.515625 68.5 
Q 23.6875 68.5 21.796875 66.546875 
Q 19.921875 64.59375 19.921875 59.515625 
L 19.921875 54.6875 
L 34.71875 54.6875 
L 34.71875 47.703125 
L 19.921875 47.703125 
L 19.921875 0 
L 10.890625 0 
L 10.890625 47.703125 
L 2.296875 47.703125 
L 2.296875 54.6875 
L 10.890625 54.6875 
L 10.890625 58.5 
Q 10.890625 67.625 15.140625 71.796875 
Q 19.390625 75.984375 28.609375 75.984375 
z
" id="DejaVuSans-102"/>
       <path d="M 41.109375 46.296875 
Q 39.59375 47.171875 37.8125 47.578125 
Q 36.03125 48 33.890625 48 
Q 26.265625 48 22.1875 43.046875 
Q 18.109375 38.09375 18.109375 28.8125 
L 18.109375 0 
L 9.078125 0 
L 9.078125 54.6875 
L 18.109375 54.6875 
L 18.109375 46.1875 
Q 20.953125 51.171875 25.484375 53.578125 
Q 30.03125 56 36.53125 56 
Q 37.453125 56 38.578125 55.875 
Q 39.703125 55.765625 41.0625 55.515625 
z
" id="DejaVuSans-114"/>
       <path d="M 34.28125 27.484375 
Q 23.390625 27.484375 19.1875 25 
Q 14.984375 22.515625 14.984375 16.5 
Q 14.984375 11.71875 18.140625 8.90625 
Q 21.296875 6.109375 26.703125 6.109375 
Q 34.1875 6.109375 38.703125 11.40625 
Q 43.21875 16.703125 43.21875 25.484375 
L 43.21875 27.484375 
z
M 52.203125 31.203125 
L 52.203125 0 
L 43.21875 0 
L 43.21875 8.296875 
Q 40.140625 3.328125 35.546875 0.953125 
Q 30.953125 -1.421875 24.3125 -1.421875 
Q 15.921875 -1.421875 10.953125 3.296875 
Q 6 8.015625 6 15.921875 
Q 6 25.140625 12.171875 29.828125 
Q 18.359375 34.515625 30.609375 34.515625 
L 43.21875 34.515625 
L 43.21875 35.40625 
Q 43.21875 41.609375 39.140625 45 
Q 35.0625 48.390625 27.6875 48.390625 
Q 23 48.390625 18.546875 47.265625 
Q 14.109375 46.140625 10.015625 43.890625 
L 10.015625 52.203125 
Q 14.9375 54.109375 19.578125 55.046875 
Q 24.21875 56 28.609375 56 
Q 40.484375 56 46.34375 49.84375 
Q 52.203125 43.703125 52.203125 31.203125 
z
" id="DejaVuSans-97"/>
       <path d="M 52 44.1875 
Q 55.375 50.25 60.0625 53.125 
Q 64.75 56 71.09375 56 
Q 79.640625 56 84.28125 50.015625 
Q 88.921875 44.046875 88.921875 33.015625 
L 88.921875 0 
L 79.890625 0 
L 79.890625 32.71875 
Q 79.890625 40.578125 77.09375 44.375 
Q 74.3125 48.1875 68.609375 48.1875 
Q 61.625 48.1875 57.5625 43.546875 
Q 53.515625 38.921875 53.515625 30.90625 
L 53.515625 0 
L 44.484375 0 
L 44.484375 32.71875 
Q 44.484375 40.625 41.703125 44.40625 
Q 38.921875 48.1875 33.109375 48.1875 
Q 26.21875 48.1875 22.15625 43.53125 
Q 18.109375 38.875 18.109375 30.90625 
L 18.109375 0 
L 9.078125 0 
L 9.078125 54.6875 
L 18.109375 54.6875 
L 18.109375 46.1875 
Q 21.1875 51.21875 25.484375 53.609375 
Q 29.78125 56 35.6875 56 
Q 41.65625 56 45.828125 52.96875 
Q 50 49.953125 52 44.1875 
z
" id="DejaVuSans-109"/>
       <path d="M 56.203125 29.59375 
L 56.203125 25.203125 
L 14.890625 25.203125 
Q 15.484375 15.921875 20.484375 11.0625 
Q 25.484375 6.203125 34.421875 6.203125 
Q 39.59375 6.203125 44.453125 7.46875 
Q 49.3125 8.734375 54.109375 11.28125 
L 54.109375 2.78125 
Q 49.265625 0.734375 44.1875 -0.34375 
Q 39.109375 -1.421875 33.890625 -1.421875 
Q 20.796875 -1.421875 13.15625 6.1875 
Q 5.515625 13.8125 5.515625 26.8125 
Q 5.515625 40.234375 12.765625 48.109375 
Q 20.015625 56 32.328125 56 
Q 43.359375 56 49.78125 48.890625 
Q 56.203125 41.796875 56.203125 29.59375 
z
M 47.21875 32.234375 
Q 47.125 39.59375 43.09375 43.984375 
Q 39.0625 48.390625 32.421875 48.390625 
Q 24.90625 48.390625 20.390625 44.140625 
Q 15.875 39.890625 15.1875 32.171875 
z
" id="DejaVuSans-101"/>
       <path d="M 44.28125 53.078125 
L 44.28125 44.578125 
Q 40.484375 46.53125 36.375 47.5 
Q 32.28125 48.484375 27.875 48.484375 
Q 21.1875 48.484375 17.84375 46.4375 
Q 14.5 44.390625 14.5 40.28125 
Q 14.5 37.15625 16.890625 35.375 
Q 19.28125 33.59375 26.515625 31.984375 
L 29.59375 31.296875 
Q 39.15625 29.25 43.1875 25.515625 
Q 47.21875 21.78125 47.21875 15.09375 
Q 47.21875 7.46875 41.1875 3.015625 
Q 35.15625 -1.421875 24.609375 -1.421875 
Q 20.21875 -1.421875 15.453125 -0.5625 
Q 10.6875 0.296875 5.421875 2 
L 5.421875 11.28125 
Q 10.40625 8.6875 15.234375 7.390625 
Q 20.0625 6.109375 24.8125 6.109375 
Q 31.15625 6.109375 34.5625 8.28125 
Q 37.984375 10.453125 37.984375 14.40625 
Q 37.984375 18.0625 35.515625 20.015625 
Q 33.0625 21.96875 24.703125 23.78125 
L 21.578125 24.515625 
Q 13.234375 26.265625 9.515625 29.90625 
Q 5.8125 33.546875 5.8125 39.890625 
Q 5.8125 47.609375 11.28125 51.796875 
Q 16.75 56 26.8125 56 
Q 31.78125 56 36.171875 55.265625 
Q 40.578125 54.546875 44.28125 53.078125 
z
" id="DejaVuSans-115"/>
      </defs>
      <use xlink:href="#DejaVuSans-102"/>
      <use x="35.205078" xlink:href="#DejaVuSans-114"/>
      <use x="76.318359" xlink:href="#DejaVuSans-97"/>
      <use x="137.597656" xlink:href="#DejaVuSans-109"/>
      <use x="235.009766" xlink:href="#DejaVuSans-101"/>
      <use x="296.533203" xlink:href="#DejaVuSans-115"/>
     </g>
    </g>
   </g>
   <g id="matplotlib.axis_2">
    <g id="ytick_1">
     <g id="line2d_7">
      <defs>
       <path d="M 0 0 
L -3.5 0 
" id="mc4982b6cdc" style="stroke:#000000;stroke-width:0.8;"/>
      </defs>
      <g>
       <use style="stroke:#000000;stroke-width:0.8;" x="50.14375" xlink:href="#mc4982b6cdc" y="270.286125"/>
      </g>
     </g>
     <g id="text_8">
      <!-- 2.5 -->
      <g transform="translate(27.240625 274.085344)scale(0.1 -0.1)">
       <defs>
        <path d="M 10.6875 12.40625 
L 21 12.40625 
L 21 0 
L 10.6875 0 
z
" id="DejaVuSans-46"/>
       </defs>
       <use xlink:href="#DejaVuSans-50"/>
       <use x="63.623047" xlink:href="#DejaVuSans-46"/>
       <use x="95.410156" xlink:href="#DejaVuSans-53"/>
      </g>
     </g>
    </g>
    <g id="ytick_2">
     <g id="line2d_8">
      <g>
       <use style="stroke:#000000;stroke-width:0.8;" x="50.14375" xlink:href="#mc4982b6cdc" y="240.046125"/>
      </g>
     </g>
     <g id="text_9">
      <!-- 5.0 -->
      <g transform="translate(27.240625 243.845344)scale(0.1 -0.1)">
       <use xlink:href="#DejaVuSans-53"/>
       <use x="63.623047" xlink:href="#DejaVuSans-46"/>
       <use x="95.410156" xlink:href="#DejaVuSans-48"/>
      </g>
     </g>
    </g>
    <g id="ytick_3">
     <g id="line2d_9">
      <g>
       <use style="stroke:#000000;stroke-width:0.8;" x="50.14375" xlink:href="#mc4982b6cdc" y="209.806125"/>
      </g>
     </g>
     <g id="text_10">
      <!-- 7.5 -->
      <g transform="translate(27.240625 213.605344)scale(0.1 -0.1)">
       <defs>
        <path d="M 8.203125 72.90625 
L 55.078125 72.90625 
L 55.078125 68.703125 
L 28.609375 0 
L 18.3125 0 
L 43.21875 64.59375 
L 8.203125 64.59375 
z
" id="DejaVuSans-55"/>
       </defs>
       <use xlink:href="#DejaVuSans-55"/>
       <use x="63.623047" xlink:href="#DejaVuSans-46"/>
       <use x="95.410156" xlink:href="#DejaVuSans-53"/>
      </g>
     </g>
    </g>
    <g id="ytick_4">
     <g id="line2d_10">
      <g>
       <use style="stroke:#000000;stroke-width:0.8;" x="50.14375" xlink:href="#mc4982b6cdc" y="179.566125"/>
      </g>
     </g>
     <g id="text_11">
      <!-- 10.0 -->
      <g transform="translate(20.878125 183.365344)scale(0.1 -0.1)">
       <use xlink:href="#DejaVuSans-49"/>
       <use x="63.623047" xlink:href="#DejaVuSans-48"/>
       <use x="127.246094" xlink:href="#DejaVuSans-46"/>
       <use x="159.033203" xlink:href="#DejaVuSans-48"/>
      </g>
     </g>
    </g>
    <g id="ytick_5">
     <g id="line2d_11">
      <g>
       <use style="stroke:#000000;stroke-width:0.8;" x="50.14375" xlink:href="#mc4982b6cdc" y="149.326125"/>
      </g>
     </g>
     <g id="text_12">
      <!-- 12.5 -->
      <g transform="translate(20.878125 153.125344)scale(0.1 -0.1)">
       <use xlink:href="#DejaVuSans-49"/>
       <use x="63.623047" xlink:href="#DejaVuSans-50"/>
       <use x="127.246094" xlink:href="#DejaVuSans-46"/>
       <use x="159.033203" xlink:href="#DejaVuSans-53"/>
      </g>
     </g>
    </g>
    <g id="ytick_6">
     <g id="line2d_12">
      <g>
       <use style="stroke:#000000;stroke-width:0.8;" x="50.14375" xlink:href="#mc4982b6cdc" y="119.086125"/>
      </g>
     </g>
     <g id="text_13">
      <!-- 15.0 -->
      <g transform="translate(20.878125 122.885344)scale(0.1 -0.1)">
       <use xlink:href="#DejaVuSans-49"/>
       <use x="63.623047" xlink:href="#DejaVuSans-53"/>
       <use x="127.246094" xlink:href="#DejaVuSans-46"/>
       <use x="159.033203" xlink:href="#DejaVuSans-48"/>
      </g>
     </g>
    </g>
    <g id="ytick_7">
     <g id="line2d_13">
      <g>
       <use style="stroke:#000000;stroke-width:0.8;" x="50.14375" xlink:href="#mc4982b6cdc" y="88.846125"/>
      </g>
     </g>
     <g id="text_14">
      <!-- 17.5 -->
      <g transform="translate(20.878125 92.645344)scale(0.1 -0.1)">
       <use xlink:href="#DejaVuSans-49"/>
       <use x="63.623047" xlink:href="#DejaVuSans-55"/>
       <use x="127.246094" xlink:href="#DejaVuSans-46"/>
       <use x="159.033203" xlink:href="#DejaVuSans-53"/>
      </g>
     </g>
    </g>
    <g id="ytick_8">
     <g id="line2d_14">
      <g>
       <use style="stroke:#000000;stroke-width:0.8;" x="50.14375" xlink:href="#mc4982b6cdc" y="58.606125"/>
      </g>
     </g>
     <g id="text_15">
      <!-- 20.0 -->
      <g transform="translate(20.878125 62.405344)scale(0.1 -0.1)">
       <use xlink:href="#DejaVuSans-50"/>
       <use x="63.623047" xlink:href="#DejaVuSans-48"/>
       <use x="127.246094" xlink:href="#DejaVuSans-46"/>
       <use x="159.033203" xlink:href="#DejaVuSans-48"/>
      </g>
     </g>
    </g>
    <g id="ytick_9">
     <g id="line2d_15">
      <g>
       <use style="stroke:#000000;stroke-width:0.8;" x="50.14375" xlink:href="#mc4982b6cdc" y="28.366125"/>
      </g>
     </g>
     <g id="text_16">
      <!-- 22.5 -->
      <g transform="translate(20.878125 32.165344)scale(0.1 -0.1)">
       <use xlink:href="#DejaVuSans-50"/>
       <use x="63.623047" xlink:href="#DejaVuSans-50"/>
       <use x="127.246094" xlink:href="#DejaVuSans-46"/>
       <use x="159.033203" xlink:href="#DejaVuSans-53"/>
      </g>
     </g>
    </g>
    <g id="text_17">
     <!-- faces -->
     <g transform="translate(14.798438 168.628812)rotate(-90)scale(0.1 -0.1)">
      <defs>
       <path d="M 48.78125 52.59375 
L 48.78125 44.1875 
Q 44.96875 46.296875 41.140625 47.34375 
Q 37.3125 48.390625 33.40625 48.390625 
Q 24.65625 48.390625 19.8125 42.84375 
Q 14.984375 37.3125 14.984375 27.296875 
Q 14.984375 17.28125 19.8125 11.734375 
Q 24.65625 6.203125 33.40625 6.203125 
Q 37.3125 6.203125 41.140625 7.25 
Q 44.96875 8.296875 48.78125 10.40625 
L 48.78125 2.09375 
Q 45.015625 0.34375 40.984375 -0.53125 
Q 36.96875 -1.421875 32.421875 -1.421875 
Q 20.0625 -1.421875 12.78125 6.34375 
Q 5.515625 14.109375 5.515625 27.296875 
Q 5.515625 40.671875 12.859375 48.328125 
Q 20.21875 56 33.015625 56 
Q 37.15625 56 41.109375 55.140625 
Q 45.0625 54.296875 48.78125 52.59375 
z
" id="DejaVuSans-99"/>
      </defs>
      <use xlink:href="#DejaVuSans-102"/>
      <use x="35.205078" xlink:href="#DejaVuSans-97"/>
      <use x="96.484375" xlink:href="#DejaVuSans-99"/>
      <use x="151.464844" xlink:href="#DejaVuSans-101"/>
      <use x="212.988281" xlink:href="#DejaVuSans-115"/>
     </g>
    </g>
   </g>
   <g id="line2d_16">
    <path clip-path="url(#p03bebc1526)" d="M 68.794761 58.606125 
L 71.817615 167.470125 
L 74.840469 155.374125 
L 77.863323 215.854125 
L 80.886178 203.758125 
L 83.909032 155.374125 
L 86.931886 155.374125 
L 89.95474 143.278125 
L 92.977595 227.950125 
L 96.000449 179.566125 
L 99.023303 203.758125 
L 102.046157 227.950125 
L 105.069012 94.894125 
L 108.091866 191.662125 
L 111.11472 82.798125 
L 114.137574 131.182125 
L 117.160429 167.470125 
L 120.183283 179.566125 
L 123.206137 179.566125 
L 126.228991 191.662125 
L 129.251845 227.950125 
L 132.2747 143.278125 
L 135.297554 179.566125 
L 138.320408 203.758125 
L 141.343262 252.142125 
L 144.366117 227.950125 
L 147.388971 179.566125 
L 150.411825 252.142125 
L 153.434679 203.758125 
L 156.457534 106.990125 
L 159.480388 252.142125 
L 162.503242 119.086125 
L 165.526096 167.470125 
L 168.548951 94.894125 
L 171.571805 167.470125 
L 174.594659 203.758125 
L 177.617513 106.990125 
L 180.640368 179.566125 
L 183.663222 179.566125 
L 186.686076 191.662125 
L 189.70893 227.950125 
L 192.731785 179.566125 
L 195.754639 179.566125 
L 198.777493 143.278125 
L 201.800347 119.086125 
L 204.823201 179.566125 
L 207.846056 203.758125 
L 210.86891 203.758125 
L 213.891764 203.758125 
L 216.914618 179.566125 
L 219.937473 155.374125 
L 222.960327 215.854125 
L 225.983181 191.662125 
L 229.006035 155.374125 
L 232.02889 215.854125 
L 235.051744 203.758125 
L 238.074598 252.142125 
L 241.097452 191.662125 
L 244.120307 131.182125 
L 247.143161 191.662125 
L 250.166015 155.374125 
L 253.188869 167.470125 
L 256.211724 155.374125 
L 259.234578 227.950125 
L 262.257432 179.566125 
L 265.280286 179.566125 
L 268.303141 203.758125 
L 271.325995 215.854125 
L 274.348849 167.470125 
L 277.371703 179.566125 
L 280.394558 179.566125 
L 283.417412 143.278125 
L 286.440266 155.374125 
L 289.46312 155.374125 
L 292.485974 119.086125 
L 295.508829 131.182125 
L 298.531683 155.374125 
L 301.554537 167.470125 
L 304.577391 155.374125 
L 307.600246 167.470125 
L 310.6231 167.470125 
L 313.645954 191.662125 
L 316.668808 167.470125 
L 319.691663 179.566125 
L 322.714517 167.470125 
L 325.737371 179.566125 
L 328.760225 131.182125 
L 331.78308 131.182125 
L 334.805934 167.470125 
L 337.828788 227.950125 
L 340.851642 215.854125 
L 343.874497 203.758125 
L 346.897351 203.758125 
L 349.920205 227.950125 
L 352.943059 143.278125 
L 355.965914 143.278125 
L 358.988768 191.662125 
L 362.011622 215.854125 
L 365.034476 203.758125 
L 368.05733 179.566125 
L 371.080185 179.566125 
L 374.103039 215.854125 
L 377.125893 203.758125 
L 380.148747 179.566125 
L 383.171602 143.278125 
L 386.194456 131.182125 
L 389.21731 215.854125 
" style="fill:none;stroke:#1f77b4;stroke-dasharray:5.55,2.4;stroke-dashoffset:0;stroke-opacity:0.5;stroke-width:1.5;"/>
    <defs>
     <path d="M 0 3 
C 0.795609 3 1.55874 2.683901 2.12132 2.12132 
C 2.683901 1.55874 3 0.795609 3 0 
C 3 -0.795609 2.683901 -1.55874 2.12132 -2.12132 
C 1.55874 -2.683901 0.795609 -3 0 -3 
C -0.795609 -3 -1.55874 -2.683901 -2.12132 -2.12132 
C -2.683901 -1.55874 -3 -0.795609 -3 0 
C -3 0.795609 -2.683901 1.55874 -2.12132 2.12132 
C -1.55874 2.683901 -0.795609 3 0 3 
z
" id="m1653773dd6" style="stroke:#1f77b4;stroke-opacity:0.5;"/>
    </defs>
    <g clip-path="url(#p03bebc1526)">
     <use style="fill:#1f77b4;fill-opacity:0.5;stroke:#1f77b4;stroke-opacity:0.5;" x="68.794761" xlink:href="#m1653773dd6" y="58.606125"/>
     <use style="fill:#1f77b4;fill-opacity:0.5;stroke:#1f77b4;stroke-opacity:0.5;" x="71.817615" xlink:href="#m1653773dd6" y="167.470125"/>
     <use style="fill:#1f77b4;fill-opacity:0.5;stroke:#1f77b4;stroke-opacity:0.5;" x="74.840469" xlink:href="#m1653773dd6" y="155.374125"/>
     <use style="fill:#1f77b4;fill-opacity:0.5;stroke:#1f77b4;stroke-opacity:0.5;" x="77.863323" xlink:href="#m1653773dd6" y="215.854125"/>
     <use style="fill:#1f77b4;fill-opacity:0.5;stroke:#1f77b4;stroke-opacity:0.5;" x="80.886178" xlink:href="#m1653773dd6" y="203.758125"/>
     <use style="fill:#1f77b4;fill-opacity:0.5;stroke:#1f77b4;stroke-opacity:0.5;" x="83.909032" xlink:href="#m1653773dd6" y="155.374125"/>
     <use style="fill:#1f77b4;fill-opacity:0.5;stroke:#1f77b4;stroke-opacity:0.5;" x="86.931886" xlink:href="#m1653773dd6" y="155.374125"/>
     <use style="fill:#1f77b4;fill-opacity:0.5;stroke:#1f77b4;stroke-opacity:0.5;" x="89.95474" xlink:href="#m1653773dd6" y="143.278125"/>
     <use style="fill:#1f77b4;fill-opacity:0.5;stroke:#1f77b4;stroke-opacity:0.5;" x="92.977595" xlink:href="#m1653773dd6" y="227.950125"/>
     <use style="fill:#1f77b4;fill-opacity:0.5;stroke:#1f77b4;stroke-opacity:0.5;" x="96.000449" xlink:href="#m1653773dd6" y="179.566125"/>
     <use style="fill:#1f77b4;fill-opacity:0.5;stroke:#1f77b4;stroke-opacity:0.5;" x="99.023303" xlink:href="#m1653773dd6" y="203.758125"/>
     <use style="fill:#1f77b4;fill-opacity:0.5;stroke:#1f77b4;stroke-opacity:0.5;" x="102.046157" xlink:href="#m1653773dd6" y="227.950125"/>
     <use style="fill:#1f77b4;fill-opacity:0.5;stroke:#1f77b4;stroke-opacity:0.5;" x="105.069012" xlink:href="#m1653773dd6" y="94.894125"/>
     <use style="fill:#1f77b4;fill-opacity:0.5;stroke:#1f77b4;stroke-opacity:0.5;" x="108.091866" xlink:href="#m1653773dd6" y="191.662125"/>
     <use style="fill:#1f77b4;fill-opacity:0.5;stroke:#1f77b4;stroke-opacity:0.5;" x="111.11472" xlink:href="#m1653773dd6" y="82.798125"/>
     <use style="fill:#1f77b4;fill-opacity:0.5;stroke:#1f77b4;stroke-opacity:0.5;" x="114.137574" xlink:href="#m1653773dd6" y="131.182125"/>
     <use style="fill:#1f77b4;fill-opacity:0.5;stroke:#1f77b4;stroke-opacity:0.5;" x="117.160429" xlink:href="#m1653773dd6" y="167.470125"/>
     <use style="fill:#1f77b4;fill-opacity:0.5;stroke:#1f77b4;stroke-opacity:0.5;" x="120.183283" xlink:href="#m1653773dd6" y="179.566125"/>
     <use style="fill:#1f77b4;fill-opacity:0.5;stroke:#1f77b4;stroke-opacity:0.5;" x="123.206137" xlink:href="#m1653773dd6" y="179.566125"/>
     <use style="fill:#1f77b4;fill-opacity:0.5;stroke:#1f77b4;stroke-opacity:0.5;" x="126.228991" xlink:href="#m1653773dd6" y="191.662125"/>
     <use style="fill:#1f77b4;fill-opacity:0.5;stroke:#1f77b4;stroke-opacity:0.5;" x="129.251845" xlink:href="#m1653773dd6" y="227.950125"/>
     <use style="fill:#1f77b4;fill-opacity:0.5;stroke:#1f77b4;stroke-opacity:0.5;" x="132.2747" xlink:href="#m1653773dd6" y="143.278125"/>
     <use style="fill:#1f77b4;fill-opacity:0.5;stroke:#1f77b4;stroke-opacity:0.5;" x="135.297554" xlink:href="#m1653773dd6" y="179.566125"/>
     <use style="fill:#1f77b4;fill-opacity:0.5;stroke:#1f77b4;stroke-opacity:0.5;" x="138.320408" xlink:href="#m1653773dd6" y="203.758125"/>
     <use style="fill:#1f77b4;fill-opacity:0.5;stroke:#1f77b4;stroke-opacity:0.5;" x="141.343262" xlink:href="#m1653773dd6" y="252.142125"/>
     <use style="fill:#1f77b4;fill-opacity:0.5;stroke:#1f77b4;stroke-opacity:0.5;" x="144.366117" xlink:href="#m1653773dd6" y="227.950125"/>
     <use style="fill:#1f77b4;fill-opacity:0.5;stroke:#1f77b4;stroke-opacity:0.5;" x="147.388971" xlink:href="#m1653773dd6" y="179.566125"/>
     <use style="fill:#1f77b4;fill-opacity:0.5;stroke:#1f77b4;stroke-opacity:0.5;" x="150.411825" xlink:href="#m1653773dd6" y="252.142125"/>
     <use style="fill:#1f77b4;fill-opacity:0.5;stroke:#1f77b4;stroke-opacity:0.5;" x="153.434679" xlink:href="#m1653773dd6" y="203.758125"/>
     <use style="fill:#1f77b4;fill-opacity:0.5;stroke:#1f77b4;stroke-opacity:0.5;" x="156.457534" xlink:href="#m1653773dd6" y="106.990125"/>
     <use style="fill:#1f77b4;fill-opacity:0.5;stroke:#1f77b4;stroke-opacity:0.5;" x="159.480388" xlink:href="#m1653773dd6" y="252.142125"/>
     <use style="fill:#1f77b4;fill-opacity:0.5;stroke:#1f77b4;stroke-opacity:0.5;" x="162.503242" xlink:href="#m1653773dd6" y="119.086125"/>
     <use style="fill:#1f77b4;fill-opacity:0.5;stroke:#1f77b4;stroke-opacity:0.5;" x="165.526096" xlink:href="#m1653773dd6" y="167.470125"/>
     <use style="fill:#1f77b4;fill-opacity:0.5;stroke:#1f77b4;stroke-opacity:0.5;" x="168.548951" xlink:href="#m1653773dd6" y="94.894125"/>
     <use style="fill:#1f77b4;fill-opacity:0.5;stroke:#1f77b4;stroke-opacity:0.5;" x="171.571805" xlink:href="#m1653773dd6" y="167.470125"/>
     <use style="fill:#1f77b4;fill-opacity:0.5;stroke:#1f77b4;stroke-opacity:0.5;" x="174.594659" xlink:href="#m1653773dd6" y="203.758125"/>
     <use style="fill:#1f77b4;fill-opacity:0.5;stroke:#1f77b4;stroke-opacity:0.5;" x="177.617513" xlink:href="#m1653773dd6" y="106.990125"/>
     <use style="fill:#1f77b4;fill-opacity:0.5;stroke:#1f77b4;stroke-opacity:0.5;" x="180.640368" xlink:href="#m1653773dd6" y="179.566125"/>
     <use style="fill:#1f77b4;fill-opacity:0.5;stroke:#1f77b4;stroke-opacity:0.5;" x="183.663222" xlink:href="#m1653773dd6" y="179.566125"/>
     <use style="fill:#1f77b4;fill-opacity:0.5;stroke:#1f77b4;stroke-opacity:0.5;" x="186.686076" xlink:href="#m1653773dd6" y="191.662125"/>
     <use style="fill:#1f77b4;fill-opacity:0.5;stroke:#1f77b4;stroke-opacity:0.5;" x="189.70893" xlink:href="#m1653773dd6" y="227.950125"/>
     <use style="fill:#1f77b4;fill-opacity:0.5;stroke:#1f77b4;stroke-opacity:0.5;" x="192.731785" xlink:href="#m1653773dd6" y="179.566125"/>
     <use style="fill:#1f77b4;fill-opacity:0.5;stroke:#1f77b4;stroke-opacity:0.5;" x="195.754639" xlink:href="#m1653773dd6" y="179.566125"/>
     <use style="fill:#1f77b4;fill-opacity:0.5;stroke:#1f77b4;stroke-opacity:0.5;" x="198.777493" xlink:href="#m1653773dd6" y="143.278125"/>
     <use style="fill:#1f77b4;fill-opacity:0.5;stroke:#1f77b4;stroke-opacity:0.5;" x="201.800347" xlink:href="#m1653773dd6" y="119.086125"/>
     <use style="fill:#1f77b4;fill-opacity:0.5;stroke:#1f77b4;stroke-opacity:0.5;" x="204.823201" xlink:href="#m1653773dd6" y="179.566125"/>
     <use style="fill:#1f77b4;fill-opacity:0.5;stroke:#1f77b4;stroke-opacity:0.5;" x="207.846056" xlink:href="#m1653773dd6" y="203.758125"/>
     <use style="fill:#1f77b4;fill-opacity:0.5;stroke:#1f77b4;stroke-opacity:0.5;" x="210.86891" xlink:href="#m1653773dd6" y="203.758125"/>
     <use style="fill:#1f77b4;fill-opacity:0.5;stroke:#1f77b4;stroke-opacity:0.5;" x="213.891764" xlink:href="#m1653773dd6" y="203.758125"/>
     <use style="fill:#1f77b4;fill-opacity:0.5;stroke:#1f77b4;stroke-opacity:0.5;" x="216.914618" xlink:href="#m1653773dd6" y="179.566125"/>
     <use style="fill:#1f77b4;fill-opacity:0.5;stroke:#1f77b4;stroke-opacity:0.5;" x="219.937473" xlink:href="#m1653773dd6" y="155.374125"/>
     <use style="fill:#1f77b4;fill-opacity:0.5;stroke:#1f77b4;stroke-opacity:0.5;" x="222.960327" xlink:href="#m1653773dd6" y="215.854125"/>
     <use style="fill:#1f77b4;fill-opacity:0.5;stroke:#1f77b4;stroke-opacity:0.5;" x="225.983181" xlink:href="#m1653773dd6" y="191.662125"/>
     <use style="fill:#1f77b4;fill-opacity:0.5;stroke:#1f77b4;stroke-opacity:0.5;" x="229.006035" xlink:href="#m1653773dd6" y="155.374125"/>
     <use style="fill:#1f77b4;fill-opacity:0.5;stroke:#1f77b4;stroke-opacity:0.5;" x="232.02889" xlink:href="#m1653773dd6" y="215.854125"/>
     <use style="fill:#1f77b4;fill-opacity:0.5;stroke:#1f77b4;stroke-opacity:0.5;" x="235.051744" xlink:href="#m1653773dd6" y="203.758125"/>
     <use style="fill:#1f77b4;fill-opacity:0.5;stroke:#1f77b4;stroke-opacity:0.5;" x="238.074598" xlink:href="#m1653773dd6" y="252.142125"/>
     <use style="fill:#1f77b4;fill-opacity:0.5;stroke:#1f77b4;stroke-opacity:0.5;" x="241.097452" xlink:href="#m1653773dd6" y="191.662125"/>
     <use style="fill:#1f77b4;fill-opacity:0.5;stroke:#1f77b4;stroke-opacity:0.5;" x="244.120307" xlink:href="#m1653773dd6" y="131.182125"/>
     <use style="fill:#1f77b4;fill-opacity:0.5;stroke:#1f77b4;stroke-opacity:0.5;" x="247.143161" xlink:href="#m1653773dd6" y="191.662125"/>
     <use style="fill:#1f77b4;fill-opacity:0.5;stroke:#1f77b4;stroke-opacity:0.5;" x="250.166015" xlink:href="#m1653773dd6" y="155.374125"/>
     <use style="fill:#1f77b4;fill-opacity:0.5;stroke:#1f77b4;stroke-opacity:0.5;" x="253.188869" xlink:href="#m1653773dd6" y="167.470125"/>
     <use style="fill:#1f77b4;fill-opacity:0.5;stroke:#1f77b4;stroke-opacity:0.5;" x="256.211724" xlink:href="#m1653773dd6" y="155.374125"/>
     <use style="fill:#1f77b4;fill-opacity:0.5;stroke:#1f77b4;stroke-opacity:0.5;" x="259.234578" xlink:href="#m1653773dd6" y="227.950125"/>
     <use style="fill:#1f77b4;fill-opacity:0.5;stroke:#1f77b4;stroke-opacity:0.5;" x="262.257432" xlink:href="#m1653773dd6" y="179.566125"/>
     <use style="fill:#1f77b4;fill-opacity:0.5;stroke:#1f77b4;stroke-opacity:0.5;" x="265.280286" xlink:href="#m1653773dd6" y="179.566125"/>
     <use style="fill:#1f77b4;fill-opacity:0.5;stroke:#1f77b4;stroke-opacity:0.5;" x="268.303141" xlink:href="#m1653773dd6" y="203.758125"/>
     <use style="fill:#1f77b4;fill-opacity:0.5;stroke:#1f77b4;stroke-opacity:0.5;" x="271.325995" xlink:href="#m1653773dd6" y="215.854125"/>
     <use style="fill:#1f77b4;fill-opacity:0.5;stroke:#1f77b4;stroke-opacity:0.5;" x="274.348849" xlink:href="#m1653773dd6" y="167.470125"/>
     <use style="fill:#1f77b4;fill-opacity:0.5;stroke:#1f77b4;stroke-opacity:0.5;" x="277.371703" xlink:href="#m1653773dd6" y="179.566125"/>
     <use style="fill:#1f77b4;fill-opacity:0.5;stroke:#1f77b4;stroke-opacity:0.5;" x="280.394558" xlink:href="#m1653773dd6" y="179.566125"/>
     <use style="fill:#1f77b4;fill-opacity:0.5;stroke:#1f77b4;stroke-opacity:0.5;" x="283.417412" xlink:href="#m1653773dd6" y="143.278125"/>
     <use style="fill:#1f77b4;fill-opacity:0.5;stroke:#1f77b4;stroke-opacity:0.5;" x="286.440266" xlink:href="#m1653773dd6" y="155.374125"/>
     <use style="fill:#1f77b4;fill-opacity:0.5;stroke:#1f77b4;stroke-opacity:0.5;" x="289.46312" xlink:href="#m1653773dd6" y="155.374125"/>
     <use style="fill:#1f77b4;fill-opacity:0.5;stroke:#1f77b4;stroke-opacity:0.5;" x="292.485974" xlink:href="#m1653773dd6" y="119.086125"/>
     <use style="fill:#1f77b4;fill-opacity:0.5;stroke:#1f77b4;stroke-opacity:0.5;" x="295.508829" xlink:href="#m1653773dd6" y="131.182125"/>
     <use style="fill:#1f77b4;fill-opacity:0.5;stroke:#1f77b4;stroke-opacity:0.5;" x="298.531683" xlink:href="#m1653773dd6" y="155.374125"/>
     <use style="fill:#1f77b4;fill-opacity:0.5;stroke:#1f77b4;stroke-opacity:0.5;" x="301.554537" xlink:href="#m1653773dd6" y="167.470125"/>
     <use style="fill:#1f77b4;fill-opacity:0.5;stroke:#1f77b4;stroke-opacity:0.5;" x="304.577391" xlink:href="#m1653773dd6" y="155.374125"/>
     <use style="fill:#1f77b4;fill-opacity:0.5;stroke:#1f77b4;stroke-opacity:0.5;" x="307.600246" xlink:href="#m1653773dd6" y="167.470125"/>
     <use style="fill:#1f77b4;fill-opacity:0.5;stroke:#1f77b4;stroke-opacity:0.5;" x="310.6231" xlink:href="#m1653773dd6" y="167.470125"/>
     <use style="fill:#1f77b4;fill-opacity:0.5;stroke:#1f77b4;stroke-opacity:0.5;" x="313.645954" xlink:href="#m1653773dd6" y="191.662125"/>
     <use style="fill:#1f77b4;fill-opacity:0.5;stroke:#1f77b4;stroke-opacity:0.5;" x="316.668808" xlink:href="#m1653773dd6" y="167.470125"/>
     <use style="fill:#1f77b4;fill-opacity:0.5;stroke:#1f77b4;stroke-opacity:0.5;" x="319.691663" xlink:href="#m1653773dd6" y="179.566125"/>
     <use style="fill:#1f77b4;fill-opacity:0.5;stroke:#1f77b4;stroke-opacity:0.5;" x="322.714517" xlink:href="#m1653773dd6" y="167.470125"/>
     <use style="fill:#1f77b4;fill-opacity:0.5;stroke:#1f77b4;stroke-opacity:0.5;" x="325.737371" xlink:href="#m1653773dd6" y="179.566125"/>
     <use style="fill:#1f77b4;fill-opacity:0.5;stroke:#1f77b4;stroke-opacity:0.5;" x="328.760225" xlink:href="#m1653773dd6" y="131.182125"/>
     <use style="fill:#1f77b4;fill-opacity:0.5;stroke:#1f77b4;stroke-opacity:0.5;" x="331.78308" xlink:href="#m1653773dd6" y="131.182125"/>
     <use style="fill:#1f77b4;fill-opacity:0.5;stroke:#1f77b4;stroke-opacity:0.5;" x="334.805934" xlink:href="#m1653773dd6" y="167.470125"/>
     <use style="fill:#1f77b4;fill-opacity:0.5;stroke:#1f77b4;stroke-opacity:0.5;" x="337.828788" xlink:href="#m1653773dd6" y="227.950125"/>
     <use style="fill:#1f77b4;fill-opacity:0.5;stroke:#1f77b4;stroke-opacity:0.5;" x="340.851642" xlink:href="#m1653773dd6" y="215.854125"/>
     <use style="fill:#1f77b4;fill-opacity:0.5;stroke:#1f77b4;stroke-opacity:0.5;" x="343.874497" xlink:href="#m1653773dd6" y="203.758125"/>
     <use style="fill:#1f77b4;fill-opacity:0.5;stroke:#1f77b4;stroke-opacity:0.5;" x="346.897351" xlink:href="#m1653773dd6" y="203.758125"/>
     <use style="fill:#1f77b4;fill-opacity:0.5;stroke:#1f77b4;stroke-opacity:0.5;" x="349.920205" xlink:href="#m1653773dd6" y="227.950125"/>
     <use style="fill:#1f77b4;fill-opacity:0.5;stroke:#1f77b4;stroke-opacity:0.5;" x="352.943059" xlink:href="#m1653773dd6" y="143.278125"/>
     <use style="fill:#1f77b4;fill-opacity:0.5;stroke:#1f77b4;stroke-opacity:0.5;" x="355.965914" xlink:href="#m1653773dd6" y="143.278125"/>
     <use style="fill:#1f77b4;fill-opacity:0.5;stroke:#1f77b4;stroke-opacity:0.5;" x="358.988768" xlink:href="#m1653773dd6" y="191.662125"/>
     <use style="fill:#1f77b4;fill-opacity:0.5;stroke:#1f77b4;stroke-opacity:0.5;" x="362.011622" xlink:href="#m1653773dd6" y="215.854125"/>
     <use style="fill:#1f77b4;fill-opacity:0.5;stroke:#1f77b4;stroke-opacity:0.5;" x="365.034476" xlink:href="#m1653773dd6" y="203.758125"/>
     <use style="fill:#1f77b4;fill-opacity:0.5;stroke:#1f77b4;stroke-opacity:0.5;" x="368.05733" xlink:href="#m1653773dd6" y="179.566125"/>
     <use style="fill:#1f77b4;fill-opacity:0.5;stroke:#1f77b4;stroke-opacity:0.5;" x="371.080185" xlink:href="#m1653773dd6" y="179.566125"/>
     <use style="fill:#1f77b4;fill-opacity:0.5;stroke:#1f77b4;stroke-opacity:0.5;" x="374.103039" xlink:href="#m1653773dd6" y="215.854125"/>
     <use style="fill:#1f77b4;fill-opacity:0.5;stroke:#1f77b4;stroke-opacity:0.5;" x="377.125893" xlink:href="#m1653773dd6" y="203.758125"/>
     <use style="fill:#1f77b4;fill-opacity:0.5;stroke:#1f77b4;stroke-opacity:0.5;" x="380.148747" xlink:href="#m1653773dd6" y="179.566125"/>
     <use style="fill:#1f77b4;fill-opacity:0.5;stroke:#1f77b4;stroke-opacity:0.5;" x="383.171602" xlink:href="#m1653773dd6" y="143.278125"/>
     <use style="fill:#1f77b4;fill-opacity:0.5;stroke:#1f77b4;stroke-opacity:0.5;" x="386.194456" xlink:href="#m1653773dd6" y="131.182125"/>
     <use style="fill:#1f77b4;fill-opacity:0.5;stroke:#1f77b4;stroke-opacity:0.5;" x="389.21731" xlink:href="#m1653773dd6" y="215.854125"/>
    </g>
   </g>
   <g id="line2d_17">
    <path clip-path="url(#p03bebc1526)" d="M 66.376477 58.606125 
L 66.981048 94.894125 
L 67.585619 106.990125 
L 68.19019 106.990125 
L 68.794761 58.606125 
L 69.399332 119.086125 
L 70.608473 119.086125 
L 71.213044 167.470125 
L 72.422186 167.470125 
L 73.026757 215.854125 
L 73.631327 215.854125 
L 74.235898 191.662125 
L 74.840469 155.374125 
L 76.049611 203.758125 
L 76.654182 240.046125 
L 77.863323 215.854125 
L 78.467894 155.374125 
L 79.072465 167.470125 
L 79.677036 203.758125 
L 80.886178 203.758125 
L 81.490748 240.046125 
L 82.095319 203.758125 
L 82.69989 240.046125 
L 83.304461 106.990125 
L 83.909032 155.374125 
L 85.722744 155.374125 
L 86.327315 106.990125 
L 86.931886 155.374125 
L 87.536457 143.278125 
L 88.141028 179.566125 
L 88.745599 167.470125 
L 89.35017 131.182125 
L 89.95474 143.278125 
L 90.559311 203.758125 
L 91.163882 203.758125 
L 91.768453 179.566125 
L 92.373024 167.470125 
L 92.977595 227.950125 
L 94.186736 203.758125 
L 94.791307 215.854125 
L 95.395878 240.046125 
L 96.000449 179.566125 
L 96.60502 227.950125 
L 97.209591 227.950125 
L 97.814161 215.854125 
L 98.418732 215.854125 
L 99.023303 203.758125 
L 100.232445 227.950125 
L 102.650728 227.950125 
L 103.255299 191.662125 
L 103.85987 227.950125 
L 104.464441 131.182125 
L 105.069012 94.894125 
L 105.673582 94.894125 
L 106.278153 34.414125 
L 106.882724 167.470125 
L 107.487295 191.662125 
L 108.091866 191.662125 
L 108.696437 155.374125 
L 109.301007 82.798125 
L 109.905578 58.606125 
L 110.510149 106.990125 
L 111.11472 82.798125 
L 111.719291 46.510125 
L 112.323862 82.798125 
L 112.928433 106.990125 
L 113.533003 34.414125 
L 114.137574 131.182125 
L 115.346716 106.990125 
L 115.951287 167.470125 
L 117.160429 167.470125 
L 117.764999 155.374125 
L 118.36957 191.662125 
L 118.974141 167.470125 
L 119.578712 155.374125 
L 120.183283 179.566125 
L 120.787854 143.278125 
L 121.392424 191.662125 
L 121.996995 70.702125 
L 122.601566 106.990125 
L 123.206137 179.566125 
L 123.810708 143.278125 
L 125.01985 167.470125 
L 125.62442 143.278125 
L 126.228991 191.662125 
L 126.833562 143.278125 
L 127.438133 203.758125 
L 128.042704 167.470125 
L 128.647275 191.662125 
L 129.251845 227.950125 
L 131.065558 155.374125 
L 131.670129 94.894125 
L 132.2747 143.278125 
L 132.879271 131.182125 
L 133.483841 191.662125 
L 134.088412 131.182125 
L 134.692983 179.566125 
L 135.297554 179.566125 
L 135.902125 227.950125 
L 136.506696 240.046125 
L 137.111267 227.950125 
L 137.715837 203.758125 
L 138.320408 203.758125 
L 138.924979 215.854125 
L 139.52955 240.046125 
L 140.134121 252.142125 
L 140.738692 227.950125 
L 141.947833 276.334125 
L 142.552404 252.142125 
L 143.156975 252.142125 
L 143.761546 227.950125 
L 144.970688 227.950125 
L 145.575258 264.238125 
L 146.179829 252.142125 
L 147.388971 179.566125 
L 147.993542 155.374125 
L 148.598113 203.758125 
L 149.202683 191.662125 
L 149.807254 240.046125 
L 150.411825 252.142125 
L 151.016396 227.950125 
L 151.620967 276.334125 
L 152.225538 227.950125 
L 152.830109 264.238125 
L 153.434679 203.758125 
L 154.03925 240.046125 
L 154.643821 227.950125 
L 155.248392 203.758125 
L 155.852963 203.758125 
L 156.457534 106.990125 
L 157.666675 203.758125 
L 158.271246 215.854125 
L 158.875817 191.662125 
L 159.480388 252.142125 
L 160.084959 191.662125 
L 160.68953 119.086125 
L 161.2941 119.086125 
L 161.898671 155.374125 
L 162.503242 119.086125 
L 163.107813 191.662125 
L 163.712384 203.758125 
L 164.316955 155.374125 
L 164.921526 143.278125 
L 165.526096 167.470125 
L 166.130667 155.374125 
L 166.735238 179.566125 
L 167.339809 119.086125 
L 167.94438 82.798125 
L 169.153521 106.990125 
L 169.758092 155.374125 
L 170.362663 131.182125 
L 170.967234 143.278125 
L 171.571805 167.470125 
L 172.780947 167.470125 
L 173.385517 131.182125 
L 173.990088 155.374125 
L 174.594659 203.758125 
L 175.803801 155.374125 
L 176.408372 106.990125 
L 177.012942 167.470125 
L 177.617513 106.990125 
L 178.222084 106.990125 
L 178.826655 131.182125 
L 179.431226 131.182125 
L 180.035797 167.470125 
L 180.640368 179.566125 
L 181.244938 106.990125 
L 181.849509 70.702125 
L 182.45408 119.086125 
L 183.058651 179.566125 
L 183.663222 179.566125 
L 184.267793 143.278125 
L 184.872364 203.758125 
L 185.476934 131.182125 
L 186.081505 167.470125 
L 186.686076 191.662125 
L 187.290647 240.046125 
L 187.895218 252.142125 
L 188.499789 240.046125 
L 189.104359 179.566125 
L 189.70893 227.950125 
L 190.313501 215.854125 
L 190.918072 227.950125 
L 191.522643 227.950125 
L 192.127214 179.566125 
L 192.731785 179.566125 
L 193.336355 227.950125 
L 193.940926 179.566125 
L 194.545497 106.990125 
L 195.150068 131.182125 
L 195.754639 179.566125 
L 196.35921 143.278125 
L 196.96378 191.662125 
L 197.568351 191.662125 
L 198.172922 179.566125 
L 198.777493 143.278125 
L 199.382064 143.278125 
L 199.986635 106.990125 
L 200.591206 167.470125 
L 201.195776 167.470125 
L 201.800347 119.086125 
L 202.404918 131.182125 
L 203.009489 131.182125 
L 204.218631 179.566125 
L 204.823201 179.566125 
L 205.427772 215.854125 
L 206.032343 203.758125 
L 206.636914 167.470125 
L 207.241485 167.470125 
L 207.846056 203.758125 
L 208.450627 203.758125 
L 209.055197 143.278125 
L 209.659768 155.374125 
L 210.86891 203.758125 
L 211.473481 143.278125 
L 212.078052 215.854125 
L 212.682623 179.566125 
L 213.287193 167.470125 
L 213.891764 203.758125 
L 214.496335 191.662125 
L 215.100906 215.854125 
L 215.705477 119.086125 
L 216.310048 167.470125 
L 216.914618 179.566125 
L 217.519189 203.758125 
L 218.12376 215.854125 
L 218.728331 179.566125 
L 219.937473 155.374125 
L 220.542044 155.374125 
L 221.146614 191.662125 
L 221.751185 191.662125 
L 222.355756 179.566125 
L 222.960327 215.854125 
L 223.564898 203.758125 
L 224.169469 167.470125 
L 224.774039 119.086125 
L 225.37861 167.470125 
L 225.983181 191.662125 
L 227.192323 215.854125 
L 228.401465 167.470125 
L 229.006035 155.374125 
L 229.610606 215.854125 
L 230.215177 215.854125 
L 230.819748 227.950125 
L 231.424319 227.950125 
L 232.02889 215.854125 
L 232.633461 215.854125 
L 233.238031 179.566125 
L 233.842602 215.854125 
L 234.447173 240.046125 
L 235.051744 203.758125 
L 235.656315 240.046125 
L 236.260886 203.758125 
L 236.865456 179.566125 
L 237.470027 179.566125 
L 238.074598 252.142125 
L 238.679169 227.950125 
L 239.28374 240.046125 
L 239.888311 215.854125 
L 240.492882 240.046125 
L 241.097452 191.662125 
L 241.702023 179.566125 
L 242.306594 179.566125 
L 242.911165 215.854125 
L 243.515736 179.566125 
L 244.120307 131.182125 
L 244.724877 119.086125 
L 245.329448 119.086125 
L 245.934019 131.182125 
L 246.53859 155.374125 
L 247.143161 191.662125 
L 247.747732 155.374125 
L 248.956873 203.758125 
L 249.561444 143.278125 
L 250.166015 155.374125 
L 250.770586 131.182125 
L 251.375157 167.470125 
L 251.979728 106.990125 
L 252.584299 167.470125 
L 253.188869 167.470125 
L 253.79344 143.278125 
L 254.398011 131.182125 
L 255.002582 179.566125 
L 255.607153 179.566125 
L 256.211724 155.374125 
L 256.816294 215.854125 
L 257.420865 203.758125 
L 258.025436 179.566125 
L 258.630007 191.662125 
L 259.234578 227.950125 
L 259.839149 155.374125 
L 260.44372 131.182125 
L 261.04829 143.278125 
L 261.652861 191.662125 
L 262.257432 179.566125 
L 262.862003 203.758125 
L 264.071145 179.566125 
L 264.675715 155.374125 
L 265.280286 179.566125 
L 265.884857 215.854125 
L 266.489428 167.470125 
L 267.093999 143.278125 
L 267.69857 131.182125 
L 268.303141 203.758125 
L 268.907711 240.046125 
L 269.512282 227.950125 
L 270.116853 203.758125 
L 270.721424 203.758125 
L 271.325995 215.854125 
L 271.930566 215.854125 
L 272.535136 167.470125 
L 273.139707 167.470125 
L 273.744278 203.758125 
L 274.348849 167.470125 
L 274.95342 167.470125 
L 275.557991 179.566125 
L 276.162562 215.854125 
L 276.767132 203.758125 
L 277.371703 179.566125 
L 277.976274 215.854125 
L 279.185416 191.662125 
L 279.789987 191.662125 
L 280.394558 179.566125 
L 280.999128 191.662125 
L 282.20827 167.470125 
L 282.812841 131.182125 
L 283.417412 143.278125 
L 284.021983 94.894125 
L 284.626553 119.086125 
L 285.231124 106.990125 
L 285.835695 143.278125 
L 286.440266 155.374125 
L 287.044837 155.374125 
L 287.649408 143.278125 
L 288.253979 143.278125 
L 288.858549 167.470125 
L 289.46312 155.374125 
L 290.067691 179.566125 
L 290.672262 119.086125 
L 291.276833 131.182125 
L 291.881404 155.374125 
L 292.485974 119.086125 
L 293.090545 94.894125 
L 293.695116 131.182125 
L 294.299687 94.894125 
L 294.904258 106.990125 
L 295.508829 131.182125 
L 296.1134 167.470125 
L 296.71797 155.374125 
L 297.322541 167.470125 
L 297.927112 167.470125 
L 298.531683 155.374125 
L 299.136254 167.470125 
L 299.740825 191.662125 
L 300.345396 167.470125 
L 300.949966 155.374125 
L 301.554537 167.470125 
L 302.159108 167.470125 
L 302.763679 179.566125 
L 303.36825 155.374125 
L 303.972821 143.278125 
L 304.577391 155.374125 
L 305.181962 155.374125 
L 305.786533 94.894125 
L 306.391104 155.374125 
L 306.995675 106.990125 
L 307.600246 167.470125 
L 308.204817 179.566125 
L 308.809387 179.566125 
L 309.413958 155.374125 
L 310.018529 155.374125 
L 311.227671 179.566125 
L 311.832242 203.758125 
L 312.436812 167.470125 
L 313.041383 167.470125 
L 313.645954 191.662125 
L 314.855096 167.470125 
L 315.459667 179.566125 
L 316.064238 179.566125 
L 316.668808 167.470125 
L 318.482521 167.470125 
L 319.087092 155.374125 
L 319.691663 179.566125 
L 320.296233 119.086125 
L 320.900804 155.374125 
L 321.505375 179.566125 
L 322.109946 131.182125 
L 322.714517 167.470125 
L 323.319088 155.374125 
L 323.923659 179.566125 
L 324.528229 191.662125 
L 325.1328 179.566125 
L 325.737371 179.566125 
L 326.341942 131.182125 
L 326.946513 119.086125 
L 327.551084 119.086125 
L 328.155655 143.278125 
L 329.364796 119.086125 
L 329.969367 119.086125 
L 330.573938 143.278125 
L 331.178509 131.182125 
L 331.78308 131.182125 
L 332.38765 167.470125 
L 332.992221 143.278125 
L 333.596792 179.566125 
L 334.201363 155.374125 
L 335.410505 179.566125 
L 336.015076 179.566125 
L 336.619646 215.854125 
L 337.224217 215.854125 
L 337.828788 227.950125 
L 338.433359 203.758125 
L 339.03793 191.662125 
L 340.247071 240.046125 
L 340.851642 215.854125 
L 341.456213 215.854125 
L 342.060784 252.142125 
L 342.665355 227.950125 
L 344.479067 191.662125 
L 345.083638 215.854125 
L 345.688209 203.758125 
L 346.897351 203.758125 
L 347.501922 155.374125 
L 348.711063 203.758125 
L 349.920205 227.950125 
L 350.524776 227.950125 
L 351.129347 215.854125 
L 351.733918 143.278125 
L 352.338488 131.182125 
L 352.943059 143.278125 
L 353.54763 131.182125 
L 354.756772 131.182125 
L 355.361343 179.566125 
L 355.965914 143.278125 
L 356.570484 179.566125 
L 357.175055 167.470125 
L 358.384197 191.662125 
L 358.988768 191.662125 
L 359.593339 167.470125 
L 360.80248 240.046125 
L 361.407051 215.854125 
L 363.220764 215.854125 
L 364.429905 240.046125 
L 365.034476 203.758125 
L 366.243618 203.758125 
L 366.848189 179.566125 
L 368.05733 179.566125 
L 368.661901 191.662125 
L 369.266472 167.470125 
L 369.871043 203.758125 
L 370.475614 155.374125 
L 371.080185 179.566125 
L 371.684756 191.662125 
L 372.289326 227.950125 
L 372.893897 227.950125 
L 373.498468 167.470125 
L 374.103039 215.854125 
L 374.70761 227.950125 
L 375.312181 215.854125 
L 375.916752 191.662125 
L 376.521322 203.758125 
L 377.125893 203.758125 
L 377.730464 179.566125 
L 378.335035 179.566125 
L 378.939606 215.854125 
L 379.544177 191.662125 
L 380.148747 179.566125 
L 380.753318 191.662125 
L 381.357889 179.566125 
L 381.96246 155.374125 
L 382.567031 167.470125 
L 383.171602 143.278125 
L 383.776173 203.758125 
L 384.380743 167.470125 
L 384.985314 167.470125 
L 385.589885 131.182125 
L 386.194456 131.182125 
L 386.799027 155.374125 
L 387.403598 155.374125 
L 388.008168 191.662125 
L 388.612739 191.662125 
L 389.821881 240.046125 
L 390.426452 215.854125 
L 391.031023 215.854125 
L 391.031023 215.854125 
" style="fill:none;stroke:#ff7f0e;stroke-dasharray:1.5,2.475;stroke-dashoffset:0;stroke-width:1.5;"/>
   </g>
   <g id="patch_3">
    <path d="M 50.14375 288.430125 
L 50.14375 22.318125 
" style="fill:none;stroke:#000000;stroke-linecap:square;stroke-linejoin:miter;stroke-width:0.8;"/>
   </g>
   <g id="patch_4">
    <path d="M 407.26375 288.430125 
L 407.26375 22.318125 
" style="fill:none;stroke:#000000;stroke-linecap:square;stroke-linejoin:miter;stroke-width:0.8;"/>
   </g>
   <g id="patch_5">
    <path d="M 50.14375 288.430125 
L 407.26375 288.430125 
" style="fill:none;stroke:#000000;stroke-linecap:square;stroke-linejoin:miter;stroke-width:0.8;"/>
   </g>
   <g id="patch_6">
    <path d="M 50.14375 22.318125 
L 407.26375 22.318125 
" style="fill:none;stroke:#000000;stroke-linecap:square;stroke-linejoin:miter;stroke-width:0.8;"/>
   </g>
   <g id="text_18">
    <!-- schoolStrike.mp4 faces -->
    <g transform="translate(159.033438 16.318125)scale(0.12 -0.12)">
     <defs>
      <path d="M 54.890625 33.015625 
L 54.890625 0 
L 45.90625 0 
L 45.90625 32.71875 
Q 45.90625 40.484375 42.875 44.328125 
Q 39.84375 48.1875 33.796875 48.1875 
Q 26.515625 48.1875 22.3125 43.546875 
Q 18.109375 38.921875 18.109375 30.90625 
L 18.109375 0 
L 9.078125 0 
L 9.078125 75.984375 
L 18.109375 75.984375 
L 18.109375 46.1875 
Q 21.34375 51.125 25.703125 53.5625 
Q 30.078125 56 35.796875 56 
Q 45.21875 56 50.046875 50.171875 
Q 54.890625 44.34375 54.890625 33.015625 
z
" id="DejaVuSans-104"/>
      <path d="M 30.609375 48.390625 
Q 23.390625 48.390625 19.1875 42.75 
Q 14.984375 37.109375 14.984375 27.296875 
Q 14.984375 17.484375 19.15625 11.84375 
Q 23.34375 6.203125 30.609375 6.203125 
Q 37.796875 6.203125 41.984375 11.859375 
Q 46.1875 17.53125 46.1875 27.296875 
Q 46.1875 37.015625 41.984375 42.703125 
Q 37.796875 48.390625 30.609375 48.390625 
z
M 30.609375 56 
Q 42.328125 56 49.015625 48.375 
Q 55.71875 40.765625 55.71875 27.296875 
Q 55.71875 13.875 49.015625 6.21875 
Q 42.328125 -1.421875 30.609375 -1.421875 
Q 18.84375 -1.421875 12.171875 6.21875 
Q 5.515625 13.875 5.515625 27.296875 
Q 5.515625 40.765625 12.171875 48.375 
Q 18.84375 56 30.609375 56 
z
" id="DejaVuSans-111"/>
      <path d="M 9.421875 75.984375 
L 18.40625 75.984375 
L 18.40625 0 
L 9.421875 0 
z
" id="DejaVuSans-108"/>
      <path d="M 53.515625 70.515625 
L 53.515625 60.890625 
Q 47.90625 63.578125 42.921875 64.890625 
Q 37.9375 66.21875 33.296875 66.21875 
Q 25.25 66.21875 20.875 63.09375 
Q 16.5 59.96875 16.5 54.203125 
Q 16.5 49.359375 19.40625 46.890625 
Q 22.3125 44.4375 30.421875 42.921875 
L 36.375 41.703125 
Q 47.40625 39.59375 52.65625 34.296875 
Q 57.90625 29 57.90625 20.125 
Q 57.90625 9.515625 50.796875 4.046875 
Q 43.703125 -1.421875 29.984375 -1.421875 
Q 24.8125 -1.421875 18.96875 -0.25 
Q 13.140625 0.921875 6.890625 3.21875 
L 6.890625 13.375 
Q 12.890625 10.015625 18.65625 8.296875 
Q 24.421875 6.59375 29.984375 6.59375 
Q 38.421875 6.59375 43.015625 9.90625 
Q 47.609375 13.234375 47.609375 19.390625 
Q 47.609375 24.75 44.3125 27.78125 
Q 41.015625 30.8125 33.5 32.328125 
L 27.484375 33.5 
Q 16.453125 35.6875 11.515625 40.375 
Q 6.59375 45.0625 6.59375 53.421875 
Q 6.59375 63.09375 13.40625 68.65625 
Q 20.21875 74.21875 32.171875 74.21875 
Q 37.3125 74.21875 42.625 73.28125 
Q 47.953125 72.359375 53.515625 70.515625 
z
" id="DejaVuSans-83"/>
      <path d="M 18.3125 70.21875 
L 18.3125 54.6875 
L 36.8125 54.6875 
L 36.8125 47.703125 
L 18.3125 47.703125 
L 18.3125 18.015625 
Q 18.3125 11.328125 20.140625 9.421875 
Q 21.96875 7.515625 27.59375 7.515625 
L 36.8125 7.515625 
L 36.8125 0 
L 27.59375 0 
Q 17.1875 0 13.234375 3.875 
Q 9.28125 7.765625 9.28125 18.015625 
L 9.28125 47.703125 
L 2.6875 47.703125 
L 2.6875 54.6875 
L 9.28125 54.6875 
L 9.28125 70.21875 
z
" id="DejaVuSans-116"/>
      <path d="M 9.421875 54.6875 
L 18.40625 54.6875 
L 18.40625 0 
L 9.421875 0 
z
M 9.421875 75.984375 
L 18.40625 75.984375 
L 18.40625 64.59375 
L 9.421875 64.59375 
z
" id="DejaVuSans-105"/>
      <path d="M 9.078125 75.984375 
L 18.109375 75.984375 
L 18.109375 31.109375 
L 44.921875 54.6875 
L 56.390625 54.6875 
L 27.390625 29.109375 
L 57.625 0 
L 45.90625 0 
L 18.109375 26.703125 
L 18.109375 0 
L 9.078125 0 
z
" id="DejaVuSans-107"/>
      <path d="M 18.109375 8.203125 
L 18.109375 -20.796875 
L 9.078125 -20.796875 
L 9.078125 54.6875 
L 18.109375 54.6875 
L 18.109375 46.390625 
Q 20.953125 51.265625 25.265625 53.625 
Q 29.59375 56 35.59375 56 
Q 45.5625 56 51.78125 48.09375 
Q 58.015625 40.1875 58.015625 27.296875 
Q 58.015625 14.40625 51.78125 6.484375 
Q 45.5625 -1.421875 35.59375 -1.421875 
Q 29.59375 -1.421875 25.265625 0.953125 
Q 20.953125 3.328125 18.109375 8.203125 
z
M 48.6875 27.296875 
Q 48.6875 37.203125 44.609375 42.84375 
Q 40.53125 48.484375 33.40625 48.484375 
Q 26.265625 48.484375 22.1875 42.84375 
Q 18.109375 37.203125 18.109375 27.296875 
Q 18.109375 17.390625 22.1875 11.75 
Q 26.265625 6.109375 33.40625 6.109375 
Q 40.53125 6.109375 44.609375 11.75 
Q 48.6875 17.390625 48.6875 27.296875 
z
" id="DejaVuSans-112"/>
      <path id="DejaVuSans-32"/>
     </defs>
     <use xlink:href="#DejaVuSans-115"/>
     <use x="52.099609" xlink:href="#DejaVuSans-99"/>
     <use x="107.080078" xlink:href="#DejaVuSans-104"/>
     <use x="170.458984" xlink:href="#DejaVuSans-111"/>
     <use x="231.640625" xlink:href="#DejaVuSans-111"/>
     <use x="292.822266" xlink:href="#DejaVuSans-108"/>
     <use x="320.605469" xlink:href="#DejaVuSans-83"/>
     <use x="384.082031" xlink:href="#DejaVuSans-116"/>
     <use x="423.291016" xlink:href="#DejaVuSans-114"/>
     <use x="464.404297" xlink:href="#DejaVuSans-105"/>
     <use x="492.1875" xlink:href="#DejaVuSans-107"/>
     <use x="546.472656" xlink:href="#DejaVuSans-101"/>
     <use x="607.996094" xlink:href="#DejaVuSans-46"/>
     <use x="639.783203" xlink:href="#DejaVuSans-109"/>
     <use x="737.195312" xlink:href="#DejaVuSans-112"/>
     <use x="800.671875" xlink:href="#DejaVuSans-52"/>
     <use x="864.294922" xlink:href="#DejaVuSans-32"/>
     <use x="896.082031" xlink:href="#DejaVuSans-102"/>
     <use x="931.287109" xlink:href="#DejaVuSans-97"/>
     <use x="992.566406" xlink:href="#DejaVuSans-99"/>
     <use x="1047.546875" xlink:href="#DejaVuSans-101"/>
     <use x="1109.070312" xlink:href="#DejaVuSans-115"/>
    </g>
   </g>
   <g id="legend_1">
    <g id="patch_7">
     <path d="M 191.760781 352.397575 
L 265.646719 352.397575 
Q 267.646719 352.397575 267.646719 350.397575 
L 267.646719 322.041325 
Q 267.646719 320.041325 265.646719 320.041325 
L 191.760781 320.041325 
Q 189.760781 320.041325 189.760781 322.041325 
L 189.760781 350.397575 
Q 189.760781 352.397575 191.760781 352.397575 
z
" style="fill:#ffffff;opacity:0.8;stroke:#cccccc;stroke-linejoin:miter;"/>
    </g>
    <g id="line2d_18">
     <path d="M 193.760781 328.139762 
L 213.760781 328.139762 
" style="fill:none;stroke:#1f77b4;stroke-dasharray:5.55,2.4;stroke-dashoffset:0;stroke-opacity:0.5;stroke-width:1.5;"/>
    </g>
    <g id="line2d_19">
     <g>
      <use style="fill:#1f77b4;fill-opacity:0.5;stroke:#1f77b4;stroke-opacity:0.5;" x="203.760781" xlink:href="#m1653773dd6" y="328.139762"/>
     </g>
    </g>
    <g id="text_19">
     <!-- c:5 -->
     <g transform="translate(221.760781 331.639762)scale(0.1 -0.1)">
      <defs>
       <path d="M 11.71875 12.40625 
L 22.015625 12.40625 
L 22.015625 0 
L 11.71875 0 
z
M 11.71875 51.703125 
L 22.015625 51.703125 
L 22.015625 39.3125 
L 11.71875 39.3125 
z
" id="DejaVuSans-58"/>
      </defs>
      <use xlink:href="#DejaVuSans-99"/>
      <use x="54.980469" xlink:href="#DejaVuSans-58"/>
      <use x="88.671875" xlink:href="#DejaVuSans-53"/>
     </g>
    </g>
    <g id="line2d_20">
     <path d="M 193.760781 342.817887 
L 213.760781 342.817887 
" style="fill:none;stroke:#ff7f0e;stroke-dasharray:1.5,2.475;stroke-dashoffset:0;stroke-width:1.5;"/>
    </g>
    <g id="line2d_21"/>
    <g id="text_20">
     <!-- baseline -->
     <g transform="translate(221.760781 346.317887)scale(0.1 -0.1)">
      <defs>
       <path d="M 48.6875 27.296875 
Q 48.6875 37.203125 44.609375 42.84375 
Q 40.53125 48.484375 33.40625 48.484375 
Q 26.265625 48.484375 22.1875 42.84375 
Q 18.109375 37.203125 18.109375 27.296875 
Q 18.109375 17.390625 22.1875 11.75 
Q 26.265625 6.109375 33.40625 6.109375 
Q 40.53125 6.109375 44.609375 11.75 
Q 48.6875 17.390625 48.6875 27.296875 
z
M 18.109375 46.390625 
Q 20.953125 51.265625 25.265625 53.625 
Q 29.59375 56 35.59375 56 
Q 45.5625 56 51.78125 48.09375 
Q 58.015625 40.1875 58.015625 27.296875 
Q 58.015625 14.40625 51.78125 6.484375 
Q 45.5625 -1.421875 35.59375 -1.421875 
Q 29.59375 -1.421875 25.265625 0.953125 
Q 20.953125 3.328125 18.109375 8.203125 
L 18.109375 0 
L 9.078125 0 
L 9.078125 75.984375 
L 18.109375 75.984375 
z
" id="DejaVuSans-98"/>
       <path d="M 54.890625 33.015625 
L 54.890625 0 
L 45.90625 0 
L 45.90625 32.71875 
Q 45.90625 40.484375 42.875 44.328125 
Q 39.84375 48.1875 33.796875 48.1875 
Q 26.515625 48.1875 22.3125 43.546875 
Q 18.109375 38.921875 18.109375 30.90625 
L 18.109375 0 
L 9.078125 0 
L 9.078125 54.6875 
L 18.109375 54.6875 
L 18.109375 46.1875 
Q 21.34375 51.125 25.703125 53.5625 
Q 30.078125 56 35.796875 56 
Q 45.21875 56 50.046875 50.171875 
Q 54.890625 44.34375 54.890625 33.015625 
z
" id="DejaVuSans-110"/>
      </defs>
      <use xlink:href="#DejaVuSans-98"/>
      <use x="63.476562" xlink:href="#DejaVuSans-97"/>
      <use x="124.755859" xlink:href="#DejaVuSans-115"/>
      <use x="176.855469" xlink:href="#DejaVuSans-101"/>
      <use x="238.378906" xlink:href="#DejaVuSans-108"/>
      <use x="266.162109" xlink:href="#DejaVuSans-105"/>
      <use x="293.945312" xlink:href="#DejaVuSans-110"/>
      <use x="357.324219" xlink:href="#DejaVuSans-101"/>
     </g>
    </g>
   </g>
  </g>
 </g>
 <defs>
  <clipPath id="p03bebc1526">
   <rect height="266.112" width="357.12" x="50.14375" y="22.318125"/>
  </clipPath>
 </defs>
</svg>
