<?xml version="1.0" encoding="utf-8" standalone="no"?>
<!DOCTYPE svg PUBLIC "-//W3C//DTD SVG 1.1//EN"
  "http://www.w3.org/Graphics/SVG/1.1/DTD/svg11.dtd">
<!-- Created with matplotlib (http://matplotlib.org/) -->
<svg height="359pt" version="1.1" viewBox="0 0 426 359" width="426pt" xmlns="http://www.w3.org/2000/svg" xmlns:xlink="http://www.w3.org/1999/xlink">
 <defs>
  <style type="text/css">
*{stroke-linecap:butt;stroke-linejoin:round;}
  </style>
 </defs>
 <g id="figure_1">
  <g id="patch_1">
   <path d="M 0 359.597575 
L 426.343437 359.597575 
L 426.343437 0 
L 0 0 
z
" style="fill:#ffffff;"/>
  </g>
  <g id="axes_1">
   <g id="patch_2">
    <path d="M 58.523438 288.430125 
L 415.643438 288.430125 
L 415.643438 22.318125 
L 58.523438 22.318125 
z
" style="fill:#ffffff;"/>
   </g>
   <g id="matplotlib.axis_1">
    <g id="xtick_1">
     <g id="line2d_1">
      <defs>
       <path d="M 0 0 
L 0 3.5 
" id="md42215d82f" style="stroke:#000000;stroke-width:0.8;"/>
      </defs>
      <g>
       <use style="stroke:#000000;stroke-width:0.8;" x="74.151594" xlink:href="#md42215d82f" y="288.430125"/>
      </g>
     </g>
     <g id="text_1">
      <!-- 0 -->
      <defs>
       <path d="M 31.78125 66.40625 
Q 24.171875 66.40625 20.328125 58.90625 
Q 16.5 51.421875 16.5 36.375 
Q 16.5 21.390625 20.328125 13.890625 
Q 24.171875 6.390625 31.78125 6.390625 
Q 39.453125 6.390625 43.28125 13.890625 
Q 47.125 21.390625 47.125 36.375 
Q 47.125 51.421875 43.28125 58.90625 
Q 39.453125 66.40625 31.78125 66.40625 
z
M 31.78125 74.21875 
Q 44.046875 74.21875 50.515625 64.515625 
Q 56.984375 54.828125 56.984375 36.375 
Q 56.984375 17.96875 50.515625 8.265625 
Q 44.046875 -1.421875 31.78125 -1.421875 
Q 19.53125 -1.421875 13.0625 8.265625 
Q 6.59375 17.96875 6.59375 36.375 
Q 6.59375 54.828125 13.0625 64.515625 
Q 19.53125 74.21875 31.78125 74.21875 
z
" id="DejaVuSans-30"/>
      </defs>
      <g transform="translate(70.970344 303.028562)scale(0.1 -0.1)">
       <use xlink:href="#DejaVuSans-30"/>
      </g>
     </g>
    </g>
    <g id="xtick_2">
     <g id="line2d_2">
      <g>
       <use style="stroke:#000000;stroke-width:0.8;" x="134.608679" xlink:href="#md42215d82f" y="288.430125"/>
      </g>
     </g>
     <g id="text_2">
      <!-- 100 -->
      <defs>
       <path d="M 12.40625 8.296875 
L 28.515625 8.296875 
L 28.515625 63.921875 
L 10.984375 60.40625 
L 10.984375 69.390625 
L 28.421875 72.90625 
L 38.28125 72.90625 
L 38.28125 8.296875 
L 54.390625 8.296875 
L 54.390625 0 
L 12.40625 0 
z
" id="DejaVuSans-31"/>
      </defs>
      <g transform="translate(125.064929 303.028562)scale(0.1 -0.1)">
       <use xlink:href="#DejaVuSans-31"/>
       <use x="63.623047" xlink:href="#DejaVuSans-30"/>
       <use x="127.246094" xlink:href="#DejaVuSans-30"/>
      </g>
     </g>
    </g>
    <g id="xtick_3">
     <g id="line2d_3">
      <g>
       <use style="stroke:#000000;stroke-width:0.8;" x="195.065764" xlink:href="#md42215d82f" y="288.430125"/>
      </g>
     </g>
     <g id="text_3">
      <!-- 200 -->
      <defs>
       <path d="M 19.1875 8.296875 
L 53.609375 8.296875 
L 53.609375 0 
L 7.328125 0 
L 7.328125 8.296875 
Q 12.9375 14.109375 22.625 23.890625 
Q 32.328125 33.6875 34.8125 36.53125 
Q 39.546875 41.84375 41.421875 45.53125 
Q 43.3125 49.21875 43.3125 52.78125 
Q 43.3125 58.59375 39.234375 62.25 
Q 35.15625 65.921875 28.609375 65.921875 
Q 23.96875 65.921875 18.8125 64.3125 
Q 13.671875 62.703125 7.8125 59.421875 
L 7.8125 69.390625 
Q 13.765625 71.78125 18.9375 73 
Q 24.125 74.21875 28.421875 74.21875 
Q 39.75 74.21875 46.484375 68.546875 
Q 53.21875 62.890625 53.21875 53.421875 
Q 53.21875 48.921875 51.53125 44.890625 
Q 49.859375 40.875 45.40625 35.40625 
Q 44.1875 33.984375 37.640625 27.21875 
Q 31.109375 20.453125 19.1875 8.296875 
z
" id="DejaVuSans-32"/>
      </defs>
      <g transform="translate(185.522014 303.028562)scale(0.1 -0.1)">
       <use xlink:href="#DejaVuSans-32"/>
       <use x="63.623047" xlink:href="#DejaVuSans-30"/>
       <use x="127.246094" xlink:href="#DejaVuSans-30"/>
      </g>
     </g>
    </g>
    <g id="xtick_4">
     <g id="line2d_4">
      <g>
       <use style="stroke:#000000;stroke-width:0.8;" x="255.522848" xlink:href="#md42215d82f" y="288.430125"/>
      </g>
     </g>
     <g id="text_4">
      <!-- 300 -->
      <defs>
       <path d="M 40.578125 39.3125 
Q 47.65625 37.796875 51.625 33 
Q 55.609375 28.21875 55.609375 21.1875 
Q 55.609375 10.40625 48.1875 4.484375 
Q 40.765625 -1.421875 27.09375 -1.421875 
Q 22.515625 -1.421875 17.65625 -0.515625 
Q 12.796875 0.390625 7.625 2.203125 
L 7.625 11.71875 
Q 11.71875 9.328125 16.59375 8.109375 
Q 21.484375 6.890625 26.8125 6.890625 
Q 36.078125 6.890625 40.9375 10.546875 
Q 45.796875 14.203125 45.796875 21.1875 
Q 45.796875 27.640625 41.28125 31.265625 
Q 36.765625 34.90625 28.71875 34.90625 
L 20.21875 34.90625 
L 20.21875 43.015625 
L 29.109375 43.015625 
Q 36.375 43.015625 40.234375 45.921875 
Q 44.09375 48.828125 44.09375 54.296875 
Q 44.09375 59.90625 40.109375 62.90625 
Q 36.140625 65.921875 28.71875 65.921875 
Q 24.65625 65.921875 20.015625 65.03125 
Q 15.375 64.15625 9.8125 62.3125 
L 9.8125 71.09375 
Q 15.4375 72.65625 20.34375 73.4375 
Q 25.25 74.21875 29.59375 74.21875 
Q 40.828125 74.21875 47.359375 69.109375 
Q 53.90625 64.015625 53.90625 55.328125 
Q 53.90625 49.265625 50.4375 45.09375 
Q 46.96875 40.921875 40.578125 39.3125 
z
" id="DejaVuSans-33"/>
      </defs>
      <g transform="translate(245.979098 303.028562)scale(0.1 -0.1)">
       <use xlink:href="#DejaVuSans-33"/>
       <use x="63.623047" xlink:href="#DejaVuSans-30"/>
       <use x="127.246094" xlink:href="#DejaVuSans-30"/>
      </g>
     </g>
    </g>
    <g id="xtick_5">
     <g id="line2d_5">
      <g>
       <use style="stroke:#000000;stroke-width:0.8;" x="315.979933" xlink:href="#md42215d82f" y="288.430125"/>
      </g>
     </g>
     <g id="text_5">
      <!-- 400 -->
      <defs>
       <path d="M 37.796875 64.3125 
L 12.890625 25.390625 
L 37.796875 25.390625 
z
M 35.203125 72.90625 
L 47.609375 72.90625 
L 47.609375 25.390625 
L 58.015625 25.390625 
L 58.015625 17.1875 
L 47.609375 17.1875 
L 47.609375 0 
L 37.796875 0 
L 37.796875 17.1875 
L 4.890625 17.1875 
L 4.890625 26.703125 
z
" id="DejaVuSans-34"/>
      </defs>
      <g transform="translate(306.436183 303.028562)scale(0.1 -0.1)">
       <use xlink:href="#DejaVuSans-34"/>
       <use x="63.623047" xlink:href="#DejaVuSans-30"/>
       <use x="127.246094" xlink:href="#DejaVuSans-30"/>
      </g>
     </g>
    </g>
    <g id="xtick_6">
     <g id="line2d_6">
      <g>
       <use style="stroke:#000000;stroke-width:0.8;" x="376.437018" xlink:href="#md42215d82f" y="288.430125"/>
      </g>
     </g>
     <g id="text_6">
      <!-- 500 -->
      <defs>
       <path d="M 10.796875 72.90625 
L 49.515625 72.90625 
L 49.515625 64.59375 
L 19.828125 64.59375 
L 19.828125 46.734375 
Q 21.96875 47.46875 24.109375 47.828125 
Q 26.265625 48.1875 28.421875 48.1875 
Q 40.625 48.1875 47.75 41.5 
Q 54.890625 34.8125 54.890625 23.390625 
Q 54.890625 11.625 47.5625 5.09375 
Q 40.234375 -1.421875 26.90625 -1.421875 
Q 22.3125 -1.421875 17.546875 -0.640625 
Q 12.796875 0.140625 7.71875 1.703125 
L 7.71875 11.625 
Q 12.109375 9.234375 16.796875 8.0625 
Q 21.484375 6.890625 26.703125 6.890625 
Q 35.15625 6.890625 40.078125 11.328125 
Q 45.015625 15.765625 45.015625 23.390625 
Q 45.015625 31 40.078125 35.4375 
Q 35.15625 39.890625 26.703125 39.890625 
Q 22.75 39.890625 18.8125 39.015625 
Q 14.890625 38.140625 10.796875 36.28125 
z
" id="DejaVuSans-35"/>
      </defs>
      <g transform="translate(366.893268 303.028562)scale(0.1 -0.1)">
       <use xlink:href="#DejaVuSans-35"/>
       <use x="63.623047" xlink:href="#DejaVuSans-30"/>
       <use x="127.246094" xlink:href="#DejaVuSans-30"/>
      </g>
     </g>
    </g>
    <g id="text_7">
     <!-- frames -->
     <defs>
      <path d="M 37.109375 75.984375 
L 37.109375 68.5 
L 28.515625 68.5 
Q 23.6875 68.5 21.796875 66.546875 
Q 19.921875 64.59375 19.921875 59.515625 
L 19.921875 54.6875 
L 34.71875 54.6875 
L 34.71875 47.703125 
L 19.921875 47.703125 
L 19.921875 0 
L 10.890625 0 
L 10.890625 47.703125 
L 2.296875 47.703125 
L 2.296875 54.6875 
L 10.890625 54.6875 
L 10.890625 58.5 
Q 10.890625 67.625 15.140625 71.796875 
Q 19.390625 75.984375 28.609375 75.984375 
z
" id="DejaVuSans-66"/>
      <path d="M 41.109375 46.296875 
Q 39.59375 47.171875 37.8125 47.578125 
Q 36.03125 48 33.890625 48 
Q 26.265625 48 22.1875 43.046875 
Q 18.109375 38.09375 18.109375 28.8125 
L 18.109375 0 
L 9.078125 0 
L 9.078125 54.6875 
L 18.109375 54.6875 
L 18.109375 46.1875 
Q 20.953125 51.171875 25.484375 53.578125 
Q 30.03125 56 36.53125 56 
Q 37.453125 56 38.578125 55.875 
Q 39.703125 55.765625 41.0625 55.515625 
z
" id="DejaVuSans-72"/>
      <path d="M 34.28125 27.484375 
Q 23.390625 27.484375 19.1875 25 
Q 14.984375 22.515625 14.984375 16.5 
Q 14.984375 11.71875 18.140625 8.90625 
Q 21.296875 6.109375 26.703125 6.109375 
Q 34.1875 6.109375 38.703125 11.40625 
Q 43.21875 16.703125 43.21875 25.484375 
L 43.21875 27.484375 
z
M 52.203125 31.203125 
L 52.203125 0 
L 43.21875 0 
L 43.21875 8.296875 
Q 40.140625 3.328125 35.546875 0.953125 
Q 30.953125 -1.421875 24.3125 -1.421875 
Q 15.921875 -1.421875 10.953125 3.296875 
Q 6 8.015625 6 15.921875 
Q 6 25.140625 12.171875 29.828125 
Q 18.359375 34.515625 30.609375 34.515625 
L 43.21875 34.515625 
L 43.21875 35.40625 
Q 43.21875 41.609375 39.140625 45 
Q 35.0625 48.390625 27.6875 48.390625 
Q 23 48.390625 18.546875 47.265625 
Q 14.109375 46.140625 10.015625 43.890625 
L 10.015625 52.203125 
Q 14.9375 54.109375 19.578125 55.046875 
Q 24.21875 56 28.609375 56 
Q 40.484375 56 46.34375 49.84375 
Q 52.203125 43.703125 52.203125 31.203125 
z
" id="DejaVuSans-61"/>
      <path d="M 52 44.1875 
Q 55.375 50.25 60.0625 53.125 
Q 64.75 56 71.09375 56 
Q 79.640625 56 84.28125 50.015625 
Q 88.921875 44.046875 88.921875 33.015625 
L 88.921875 0 
L 79.890625 0 
L 79.890625 32.71875 
Q 79.890625 40.578125 77.09375 44.375 
Q 74.3125 48.1875 68.609375 48.1875 
Q 61.625 48.1875 57.5625 43.546875 
Q 53.515625 38.921875 53.515625 30.90625 
L 53.515625 0 
L 44.484375 0 
L 44.484375 32.71875 
Q 44.484375 40.625 41.703125 44.40625 
Q 38.921875 48.1875 33.109375 48.1875 
Q 26.21875 48.1875 22.15625 43.53125 
Q 18.109375 38.875 18.109375 30.90625 
L 18.109375 0 
L 9.078125 0 
L 9.078125 54.6875 
L 18.109375 54.6875 
L 18.109375 46.1875 
Q 21.1875 51.21875 25.484375 53.609375 
Q 29.78125 56 35.6875 56 
Q 41.65625 56 45.828125 52.96875 
Q 50 49.953125 52 44.1875 
z
" id="DejaVuSans-6d"/>
      <path d="M 56.203125 29.59375 
L 56.203125 25.203125 
L 14.890625 25.203125 
Q 15.484375 15.921875 20.484375 11.0625 
Q 25.484375 6.203125 34.421875 6.203125 
Q 39.59375 6.203125 44.453125 7.46875 
Q 49.3125 8.734375 54.109375 11.28125 
L 54.109375 2.78125 
Q 49.265625 0.734375 44.1875 -0.34375 
Q 39.109375 -1.421875 33.890625 -1.421875 
Q 20.796875 -1.421875 13.15625 6.1875 
Q 5.515625 13.8125 5.515625 26.8125 
Q 5.515625 40.234375 12.765625 48.109375 
Q 20.015625 56 32.328125 56 
Q 43.359375 56 49.78125 48.890625 
Q 56.203125 41.796875 56.203125 29.59375 
z
M 47.21875 32.234375 
Q 47.125 39.59375 43.09375 43.984375 
Q 39.0625 48.390625 32.421875 48.390625 
Q 24.90625 48.390625 20.390625 44.140625 
Q 15.875 39.890625 15.1875 32.171875 
z
" id="DejaVuSans-65"/>
      <path d="M 44.28125 53.078125 
L 44.28125 44.578125 
Q 40.484375 46.53125 36.375 47.5 
Q 32.28125 48.484375 27.875 48.484375 
Q 21.1875 48.484375 17.84375 46.4375 
Q 14.5 44.390625 14.5 40.28125 
Q 14.5 37.15625 16.890625 35.375 
Q 19.28125 33.59375 26.515625 31.984375 
L 29.59375 31.296875 
Q 39.15625 29.25 43.1875 25.515625 
Q 47.21875 21.78125 47.21875 15.09375 
Q 47.21875 7.46875 41.1875 3.015625 
Q 35.15625 -1.421875 24.609375 -1.421875 
Q 20.21875 -1.421875 15.453125 -0.5625 
Q 10.6875 0.296875 5.421875 2 
L 5.421875 11.28125 
Q 10.40625 8.6875 15.234375 7.390625 
Q 20.0625 6.109375 24.8125 6.109375 
Q 31.15625 6.109375 34.5625 8.28125 
Q 37.984375 10.453125 37.984375 14.40625 
Q 37.984375 18.0625 35.515625 20.015625 
Q 33.0625 21.96875 24.703125 23.78125 
L 21.578125 24.515625 
Q 13.234375 26.265625 9.515625 29.90625 
Q 5.8125 33.546875 5.8125 39.890625 
Q 5.8125 47.609375 11.28125 51.796875 
Q 16.75 56 26.8125 56 
Q 31.78125 56 36.171875 55.265625 
Q 40.578125 54.546875 44.28125 53.078125 
z
" id="DejaVuSans-73"/>
     </defs>
     <g transform="translate(219.652187 316.706687)scale(0.1 -0.1)">
      <use xlink:href="#DejaVuSans-66"/>
      <use x="35.205078" xlink:href="#DejaVuSans-72"/>
      <use x="76.318359" xlink:href="#DejaVuSans-61"/>
      <use x="137.597656" xlink:href="#DejaVuSans-6d"/>
      <use x="235.009766" xlink:href="#DejaVuSans-65"/>
      <use x="296.533203" xlink:href="#DejaVuSans-73"/>
     </g>
    </g>
   </g>
   <g id="matplotlib.axis_2">
    <g id="ytick_1">
     <g id="line2d_7">
      <defs>
       <path d="M 0 0 
L -3.5 0 
" id="mac9d944bf1" style="stroke:#000000;stroke-width:0.8;"/>
      </defs>
      <g>
       <use style="stroke:#000000;stroke-width:0.8;" x="58.523438" xlink:href="#mac9d944bf1" y="252.142125"/>
      </g>
     </g>
     <g id="text_8">
      <!-- −0.04 -->
      <defs>
       <path d="M 10.59375 35.5 
L 73.1875 35.5 
L 73.1875 27.203125 
L 10.59375 27.203125 
z
" id="DejaVuSans-2212"/>
       <path d="M 10.6875 12.40625 
L 21 12.40625 
L 21 0 
L 10.6875 0 
z
" id="DejaVuSans-2e"/>
      </defs>
      <g transform="translate(20.878125 255.941344)scale(0.1 -0.1)">
       <use xlink:href="#DejaVuSans-2212"/>
       <use x="83.789062" xlink:href="#DejaVuSans-30"/>
       <use x="147.412109" xlink:href="#DejaVuSans-2e"/>
       <use x="179.199219" xlink:href="#DejaVuSans-30"/>
       <use x="242.822266" xlink:href="#DejaVuSans-34"/>
      </g>
     </g>
    </g>
    <g id="ytick_2">
     <g id="line2d_8">
      <g>
       <use style="stroke:#000000;stroke-width:0.8;" x="58.523438" xlink:href="#mac9d944bf1" y="203.758125"/>
      </g>
     </g>
     <g id="text_9">
      <!-- −0.02 -->
      <g transform="translate(20.878125 207.557344)scale(0.1 -0.1)">
       <use xlink:href="#DejaVuSans-2212"/>
       <use x="83.789062" xlink:href="#DejaVuSans-30"/>
       <use x="147.412109" xlink:href="#DejaVuSans-2e"/>
       <use x="179.199219" xlink:href="#DejaVuSans-30"/>
       <use x="242.822266" xlink:href="#DejaVuSans-32"/>
      </g>
     </g>
    </g>
    <g id="ytick_3">
     <g id="line2d_9">
      <g>
       <use style="stroke:#000000;stroke-width:0.8;" x="58.523438" xlink:href="#mac9d944bf1" y="155.374125"/>
      </g>
     </g>
     <g id="text_10">
      <!-- 0.00 -->
      <g transform="translate(29.257813 159.173344)scale(0.1 -0.1)">
       <use xlink:href="#DejaVuSans-30"/>
       <use x="63.623047" xlink:href="#DejaVuSans-2e"/>
       <use x="95.410156" xlink:href="#DejaVuSans-30"/>
       <use x="159.033203" xlink:href="#DejaVuSans-30"/>
      </g>
     </g>
    </g>
    <g id="ytick_4">
     <g id="line2d_10">
      <g>
       <use style="stroke:#000000;stroke-width:0.8;" x="58.523438" xlink:href="#mac9d944bf1" y="106.990125"/>
      </g>
     </g>
     <g id="text_11">
      <!-- 0.02 -->
      <g transform="translate(29.257813 110.789344)scale(0.1 -0.1)">
       <use xlink:href="#DejaVuSans-30"/>
       <use x="63.623047" xlink:href="#DejaVuSans-2e"/>
       <use x="95.410156" xlink:href="#DejaVuSans-30"/>
       <use x="159.033203" xlink:href="#DejaVuSans-32"/>
      </g>
     </g>
    </g>
    <g id="ytick_5">
     <g id="line2d_11">
      <g>
       <use style="stroke:#000000;stroke-width:0.8;" x="58.523438" xlink:href="#mac9d944bf1" y="58.606125"/>
      </g>
     </g>
     <g id="text_12">
      <!-- 0.04 -->
      <g transform="translate(29.257813 62.405344)scale(0.1 -0.1)">
       <use xlink:href="#DejaVuSans-30"/>
       <use x="63.623047" xlink:href="#DejaVuSans-2e"/>
       <use x="95.410156" xlink:href="#DejaVuSans-30"/>
       <use x="159.033203" xlink:href="#DejaVuSans-34"/>
      </g>
     </g>
    </g>
    <g id="text_13">
     <!-- masks -->
     <defs>
      <path d="M 9.078125 75.984375 
L 18.109375 75.984375 
L 18.109375 31.109375 
L 44.921875 54.6875 
L 56.390625 54.6875 
L 27.390625 29.109375 
L 57.625 0 
L 45.90625 0 
L 18.109375 26.703125 
L 18.109375 0 
L 9.078125 0 
z
" id="DejaVuSans-6b"/>
     </defs>
     <g transform="translate(14.798438 171.413187)rotate(-90)scale(0.1 -0.1)">
      <use xlink:href="#DejaVuSans-6d"/>
      <use x="97.412109" xlink:href="#DejaVuSans-61"/>
      <use x="158.691406" xlink:href="#DejaVuSans-73"/>
      <use x="210.791016" xlink:href="#DejaVuSans-6b"/>
      <use x="268.701172" xlink:href="#DejaVuSans-73"/>
     </g>
    </g>
   </g>
   <g id="line2d_12">
    <path clip-path="url(#p51475da24e)" d="M 77.174448 155.374125 
L 80.197302 155.374125 
L 83.220157 155.374125 
L 86.243011 155.374125 
L 89.265865 155.374125 
L 92.288719 155.374125 
L 95.311574 155.374125 
L 98.334428 155.374125 
L 101.357282 155.374125 
L 104.380136 155.374125 
L 107.402991 155.374125 
L 110.425845 155.374125 
L 113.448699 155.374125 
L 116.471553 155.374125 
L 119.494408 155.374125 
L 122.517262 155.374125 
L 125.540116 155.374125 
L 128.56297 155.374125 
L 131.585824 155.374125 
L 134.608679 155.374125 
L 137.631533 155.374125 
L 140.654387 155.374125 
L 143.677241 155.374125 
L 146.700096 155.374125 
L 149.72295 155.374125 
L 152.745804 155.374125 
L 155.768658 155.374125 
L 158.791513 155.374125 
L 161.814367 155.374125 
L 164.837221 155.374125 
L 167.860075 155.374125 
L 170.88293 155.374125 
L 173.905784 155.374125 
L 176.928638 155.374125 
L 179.951492 155.374125 
L 182.974347 155.374125 
L 185.997201 155.374125 
L 189.020055 155.374125 
L 192.042909 155.374125 
L 195.065764 155.374125 
L 198.088618 155.374125 
L 201.111472 155.374125 
L 204.134326 155.374125 
L 207.157181 155.374125 
L 210.180035 155.374125 
L 213.202889 155.374125 
L 216.225743 155.374125 
L 219.248597 155.374125 
L 222.271452 155.374125 
L 225.294306 155.374125 
L 228.31716 155.374125 
L 231.340014 155.374125 
L 234.362869 155.374125 
L 237.385723 155.374125 
L 240.408577 155.374125 
L 243.431431 155.374125 
L 246.454286 155.374125 
L 249.47714 155.374125 
L 252.499994 155.374125 
L 255.522848 155.374125 
L 258.545703 155.374125 
L 261.568557 155.374125 
L 264.591411 155.374125 
L 267.614265 155.374125 
L 270.63712 155.374125 
L 273.659974 155.374125 
L 276.682828 155.374125 
L 279.705682 155.374125 
L 282.728537 155.374125 
L 285.751391 155.374125 
L 288.774245 155.374125 
L 291.797099 155.374125 
L 294.819953 155.374125 
L 297.842808 155.374125 
L 300.865662 155.374125 
L 303.888516 155.374125 
L 306.91137 155.374125 
L 309.934225 155.374125 
L 312.957079 155.374125 
L 315.979933 155.374125 
L 319.002787 155.374125 
L 322.025642 155.374125 
L 325.048496 155.374125 
L 328.07135 155.374125 
L 331.094204 155.374125 
L 334.117059 155.374125 
L 337.139913 155.374125 
L 340.162767 155.374125 
L 343.185621 155.374125 
L 346.208476 155.374125 
L 349.23133 155.374125 
L 352.254184 155.374125 
L 355.277038 155.374125 
L 358.299893 155.374125 
L 361.322747 155.374125 
L 364.345601 155.374125 
L 367.368455 155.374125 
L 370.39131 155.374125 
L 373.414164 155.374125 
L 376.437018 155.374125 
L 379.459872 155.374125 
L 382.482726 155.374125 
L 385.505581 155.374125 
L 388.528435 155.374125 
L 391.551289 155.374125 
L 394.574143 155.374125 
L 397.596998 155.374125 
" style="fill:none;opacity:0.5;stroke:#1f77b4;stroke-dasharray:5.55,2.4;stroke-dashoffset:0;stroke-width:1.5;"/>
    <defs>
     <path d="M 0 3 
C 0.795609 3 1.55874 2.683901 2.12132 2.12132 
C 2.683901 1.55874 3 0.795609 3 0 
C 3 -0.795609 2.683901 -1.55874 2.12132 -2.12132 
C 1.55874 -2.683901 0.795609 -3 0 -3 
C -0.795609 -3 -1.55874 -2.683901 -2.12132 -2.12132 
C -2.683901 -1.55874 -3 -0.795609 -3 0 
C -3 0.795609 -2.683901 1.55874 -2.12132 2.12132 
C -1.55874 2.683901 -0.795609 3 0 3 
z
" id="m16e7e4b49f" style="stroke:#1f77b4;"/>
    </defs>
    <g clip-path="url(#p51475da24e)">
     <use style="fill:#1f77b4;opacity:0.5;stroke:#1f77b4;" x="77.174448" xlink:href="#m16e7e4b49f" y="155.374125"/>
     <use style="fill:#1f77b4;opacity:0.5;stroke:#1f77b4;" x="80.197302" xlink:href="#m16e7e4b49f" y="155.374125"/>
     <use style="fill:#1f77b4;opacity:0.5;stroke:#1f77b4;" x="83.220157" xlink:href="#m16e7e4b49f" y="155.374125"/>
     <use style="fill:#1f77b4;opacity:0.5;stroke:#1f77b4;" x="86.243011" xlink:href="#m16e7e4b49f" y="155.374125"/>
     <use style="fill:#1f77b4;opacity:0.5;stroke:#1f77b4;" x="89.265865" xlink:href="#m16e7e4b49f" y="155.374125"/>
     <use style="fill:#1f77b4;opacity:0.5;stroke:#1f77b4;" x="92.288719" xlink:href="#m16e7e4b49f" y="155.374125"/>
     <use style="fill:#1f77b4;opacity:0.5;stroke:#1f77b4;" x="95.311574" xlink:href="#m16e7e4b49f" y="155.374125"/>
     <use style="fill:#1f77b4;opacity:0.5;stroke:#1f77b4;" x="98.334428" xlink:href="#m16e7e4b49f" y="155.374125"/>
     <use style="fill:#1f77b4;opacity:0.5;stroke:#1f77b4;" x="101.357282" xlink:href="#m16e7e4b49f" y="155.374125"/>
     <use style="fill:#1f77b4;opacity:0.5;stroke:#1f77b4;" x="104.380136" xlink:href="#m16e7e4b49f" y="155.374125"/>
     <use style="fill:#1f77b4;opacity:0.5;stroke:#1f77b4;" x="107.402991" xlink:href="#m16e7e4b49f" y="155.374125"/>
     <use style="fill:#1f77b4;opacity:0.5;stroke:#1f77b4;" x="110.425845" xlink:href="#m16e7e4b49f" y="155.374125"/>
     <use style="fill:#1f77b4;opacity:0.5;stroke:#1f77b4;" x="113.448699" xlink:href="#m16e7e4b49f" y="155.374125"/>
     <use style="fill:#1f77b4;opacity:0.5;stroke:#1f77b4;" x="116.471553" xlink:href="#m16e7e4b49f" y="155.374125"/>
     <use style="fill:#1f77b4;opacity:0.5;stroke:#1f77b4;" x="119.494408" xlink:href="#m16e7e4b49f" y="155.374125"/>
     <use style="fill:#1f77b4;opacity:0.5;stroke:#1f77b4;" x="122.517262" xlink:href="#m16e7e4b49f" y="155.374125"/>
     <use style="fill:#1f77b4;opacity:0.5;stroke:#1f77b4;" x="125.540116" xlink:href="#m16e7e4b49f" y="155.374125"/>
     <use style="fill:#1f77b4;opacity:0.5;stroke:#1f77b4;" x="128.56297" xlink:href="#m16e7e4b49f" y="155.374125"/>
     <use style="fill:#1f77b4;opacity:0.5;stroke:#1f77b4;" x="131.585824" xlink:href="#m16e7e4b49f" y="155.374125"/>
     <use style="fill:#1f77b4;opacity:0.5;stroke:#1f77b4;" x="134.608679" xlink:href="#m16e7e4b49f" y="155.374125"/>
     <use style="fill:#1f77b4;opacity:0.5;stroke:#1f77b4;" x="137.631533" xlink:href="#m16e7e4b49f" y="155.374125"/>
     <use style="fill:#1f77b4;opacity:0.5;stroke:#1f77b4;" x="140.654387" xlink:href="#m16e7e4b49f" y="155.374125"/>
     <use style="fill:#1f77b4;opacity:0.5;stroke:#1f77b4;" x="143.677241" xlink:href="#m16e7e4b49f" y="155.374125"/>
     <use style="fill:#1f77b4;opacity:0.5;stroke:#1f77b4;" x="146.700096" xlink:href="#m16e7e4b49f" y="155.374125"/>
     <use style="fill:#1f77b4;opacity:0.5;stroke:#1f77b4;" x="149.72295" xlink:href="#m16e7e4b49f" y="155.374125"/>
     <use style="fill:#1f77b4;opacity:0.5;stroke:#1f77b4;" x="152.745804" xlink:href="#m16e7e4b49f" y="155.374125"/>
     <use style="fill:#1f77b4;opacity:0.5;stroke:#1f77b4;" x="155.768658" xlink:href="#m16e7e4b49f" y="155.374125"/>
     <use style="fill:#1f77b4;opacity:0.5;stroke:#1f77b4;" x="158.791513" xlink:href="#m16e7e4b49f" y="155.374125"/>
     <use style="fill:#1f77b4;opacity:0.5;stroke:#1f77b4;" x="161.814367" xlink:href="#m16e7e4b49f" y="155.374125"/>
     <use style="fill:#1f77b4;opacity:0.5;stroke:#1f77b4;" x="164.837221" xlink:href="#m16e7e4b49f" y="155.374125"/>
     <use style="fill:#1f77b4;opacity:0.5;stroke:#1f77b4;" x="167.860075" xlink:href="#m16e7e4b49f" y="155.374125"/>
     <use style="fill:#1f77b4;opacity:0.5;stroke:#1f77b4;" x="170.88293" xlink:href="#m16e7e4b49f" y="155.374125"/>
     <use style="fill:#1f77b4;opacity:0.5;stroke:#1f77b4;" x="173.905784" xlink:href="#m16e7e4b49f" y="155.374125"/>
     <use style="fill:#1f77b4;opacity:0.5;stroke:#1f77b4;" x="176.928638" xlink:href="#m16e7e4b49f" y="155.374125"/>
     <use style="fill:#1f77b4;opacity:0.5;stroke:#1f77b4;" x="179.951492" xlink:href="#m16e7e4b49f" y="155.374125"/>
     <use style="fill:#1f77b4;opacity:0.5;stroke:#1f77b4;" x="182.974347" xlink:href="#m16e7e4b49f" y="155.374125"/>
     <use style="fill:#1f77b4;opacity:0.5;stroke:#1f77b4;" x="185.997201" xlink:href="#m16e7e4b49f" y="155.374125"/>
     <use style="fill:#1f77b4;opacity:0.5;stroke:#1f77b4;" x="189.020055" xlink:href="#m16e7e4b49f" y="155.374125"/>
     <use style="fill:#1f77b4;opacity:0.5;stroke:#1f77b4;" x="192.042909" xlink:href="#m16e7e4b49f" y="155.374125"/>
     <use style="fill:#1f77b4;opacity:0.5;stroke:#1f77b4;" x="195.065764" xlink:href="#m16e7e4b49f" y="155.374125"/>
     <use style="fill:#1f77b4;opacity:0.5;stroke:#1f77b4;" x="198.088618" xlink:href="#m16e7e4b49f" y="155.374125"/>
     <use style="fill:#1f77b4;opacity:0.5;stroke:#1f77b4;" x="201.111472" xlink:href="#m16e7e4b49f" y="155.374125"/>
     <use style="fill:#1f77b4;opacity:0.5;stroke:#1f77b4;" x="204.134326" xlink:href="#m16e7e4b49f" y="155.374125"/>
     <use style="fill:#1f77b4;opacity:0.5;stroke:#1f77b4;" x="207.157181" xlink:href="#m16e7e4b49f" y="155.374125"/>
     <use style="fill:#1f77b4;opacity:0.5;stroke:#1f77b4;" x="210.180035" xlink:href="#m16e7e4b49f" y="155.374125"/>
     <use style="fill:#1f77b4;opacity:0.5;stroke:#1f77b4;" x="213.202889" xlink:href="#m16e7e4b49f" y="155.374125"/>
     <use style="fill:#1f77b4;opacity:0.5;stroke:#1f77b4;" x="216.225743" xlink:href="#m16e7e4b49f" y="155.374125"/>
     <use style="fill:#1f77b4;opacity:0.5;stroke:#1f77b4;" x="219.248597" xlink:href="#m16e7e4b49f" y="155.374125"/>
     <use style="fill:#1f77b4;opacity:0.5;stroke:#1f77b4;" x="222.271452" xlink:href="#m16e7e4b49f" y="155.374125"/>
     <use style="fill:#1f77b4;opacity:0.5;stroke:#1f77b4;" x="225.294306" xlink:href="#m16e7e4b49f" y="155.374125"/>
     <use style="fill:#1f77b4;opacity:0.5;stroke:#1f77b4;" x="228.31716" xlink:href="#m16e7e4b49f" y="155.374125"/>
     <use style="fill:#1f77b4;opacity:0.5;stroke:#1f77b4;" x="231.340014" xlink:href="#m16e7e4b49f" y="155.374125"/>
     <use style="fill:#1f77b4;opacity:0.5;stroke:#1f77b4;" x="234.362869" xlink:href="#m16e7e4b49f" y="155.374125"/>
     <use style="fill:#1f77b4;opacity:0.5;stroke:#1f77b4;" x="237.385723" xlink:href="#m16e7e4b49f" y="155.374125"/>
     <use style="fill:#1f77b4;opacity:0.5;stroke:#1f77b4;" x="240.408577" xlink:href="#m16e7e4b49f" y="155.374125"/>
     <use style="fill:#1f77b4;opacity:0.5;stroke:#1f77b4;" x="243.431431" xlink:href="#m16e7e4b49f" y="155.374125"/>
     <use style="fill:#1f77b4;opacity:0.5;stroke:#1f77b4;" x="246.454286" xlink:href="#m16e7e4b49f" y="155.374125"/>
     <use style="fill:#1f77b4;opacity:0.5;stroke:#1f77b4;" x="249.47714" xlink:href="#m16e7e4b49f" y="155.374125"/>
     <use style="fill:#1f77b4;opacity:0.5;stroke:#1f77b4;" x="252.499994" xlink:href="#m16e7e4b49f" y="155.374125"/>
     <use style="fill:#1f77b4;opacity:0.5;stroke:#1f77b4;" x="255.522848" xlink:href="#m16e7e4b49f" y="155.374125"/>
     <use style="fill:#1f77b4;opacity:0.5;stroke:#1f77b4;" x="258.545703" xlink:href="#m16e7e4b49f" y="155.374125"/>
     <use style="fill:#1f77b4;opacity:0.5;stroke:#1f77b4;" x="261.568557" xlink:href="#m16e7e4b49f" y="155.374125"/>
     <use style="fill:#1f77b4;opacity:0.5;stroke:#1f77b4;" x="264.591411" xlink:href="#m16e7e4b49f" y="155.374125"/>
     <use style="fill:#1f77b4;opacity:0.5;stroke:#1f77b4;" x="267.614265" xlink:href="#m16e7e4b49f" y="155.374125"/>
     <use style="fill:#1f77b4;opacity:0.5;stroke:#1f77b4;" x="270.63712" xlink:href="#m16e7e4b49f" y="155.374125"/>
     <use style="fill:#1f77b4;opacity:0.5;stroke:#1f77b4;" x="273.659974" xlink:href="#m16e7e4b49f" y="155.374125"/>
     <use style="fill:#1f77b4;opacity:0.5;stroke:#1f77b4;" x="276.682828" xlink:href="#m16e7e4b49f" y="155.374125"/>
     <use style="fill:#1f77b4;opacity:0.5;stroke:#1f77b4;" x="279.705682" xlink:href="#m16e7e4b49f" y="155.374125"/>
     <use style="fill:#1f77b4;opacity:0.5;stroke:#1f77b4;" x="282.728537" xlink:href="#m16e7e4b49f" y="155.374125"/>
     <use style="fill:#1f77b4;opacity:0.5;stroke:#1f77b4;" x="285.751391" xlink:href="#m16e7e4b49f" y="155.374125"/>
     <use style="fill:#1f77b4;opacity:0.5;stroke:#1f77b4;" x="288.774245" xlink:href="#m16e7e4b49f" y="155.374125"/>
     <use style="fill:#1f77b4;opacity:0.5;stroke:#1f77b4;" x="291.797099" xlink:href="#m16e7e4b49f" y="155.374125"/>
     <use style="fill:#1f77b4;opacity:0.5;stroke:#1f77b4;" x="294.819953" xlink:href="#m16e7e4b49f" y="155.374125"/>
     <use style="fill:#1f77b4;opacity:0.5;stroke:#1f77b4;" x="297.842808" xlink:href="#m16e7e4b49f" y="155.374125"/>
     <use style="fill:#1f77b4;opacity:0.5;stroke:#1f77b4;" x="300.865662" xlink:href="#m16e7e4b49f" y="155.374125"/>
     <use style="fill:#1f77b4;opacity:0.5;stroke:#1f77b4;" x="303.888516" xlink:href="#m16e7e4b49f" y="155.374125"/>
     <use style="fill:#1f77b4;opacity:0.5;stroke:#1f77b4;" x="306.91137" xlink:href="#m16e7e4b49f" y="155.374125"/>
     <use style="fill:#1f77b4;opacity:0.5;stroke:#1f77b4;" x="309.934225" xlink:href="#m16e7e4b49f" y="155.374125"/>
     <use style="fill:#1f77b4;opacity:0.5;stroke:#1f77b4;" x="312.957079" xlink:href="#m16e7e4b49f" y="155.374125"/>
     <use style="fill:#1f77b4;opacity:0.5;stroke:#1f77b4;" x="315.979933" xlink:href="#m16e7e4b49f" y="155.374125"/>
     <use style="fill:#1f77b4;opacity:0.5;stroke:#1f77b4;" x="319.002787" xlink:href="#m16e7e4b49f" y="155.374125"/>
     <use style="fill:#1f77b4;opacity:0.5;stroke:#1f77b4;" x="322.025642" xlink:href="#m16e7e4b49f" y="155.374125"/>
     <use style="fill:#1f77b4;opacity:0.5;stroke:#1f77b4;" x="325.048496" xlink:href="#m16e7e4b49f" y="155.374125"/>
     <use style="fill:#1f77b4;opacity:0.5;stroke:#1f77b4;" x="328.07135" xlink:href="#m16e7e4b49f" y="155.374125"/>
     <use style="fill:#1f77b4;opacity:0.5;stroke:#1f77b4;" x="331.094204" xlink:href="#m16e7e4b49f" y="155.374125"/>
     <use style="fill:#1f77b4;opacity:0.5;stroke:#1f77b4;" x="334.117059" xlink:href="#m16e7e4b49f" y="155.374125"/>
     <use style="fill:#1f77b4;opacity:0.5;stroke:#1f77b4;" x="337.139913" xlink:href="#m16e7e4b49f" y="155.374125"/>
     <use style="fill:#1f77b4;opacity:0.5;stroke:#1f77b4;" x="340.162767" xlink:href="#m16e7e4b49f" y="155.374125"/>
     <use style="fill:#1f77b4;opacity:0.5;stroke:#1f77b4;" x="343.185621" xlink:href="#m16e7e4b49f" y="155.374125"/>
     <use style="fill:#1f77b4;opacity:0.5;stroke:#1f77b4;" x="346.208476" xlink:href="#m16e7e4b49f" y="155.374125"/>
     <use style="fill:#1f77b4;opacity:0.5;stroke:#1f77b4;" x="349.23133" xlink:href="#m16e7e4b49f" y="155.374125"/>
     <use style="fill:#1f77b4;opacity:0.5;stroke:#1f77b4;" x="352.254184" xlink:href="#m16e7e4b49f" y="155.374125"/>
     <use style="fill:#1f77b4;opacity:0.5;stroke:#1f77b4;" x="355.277038" xlink:href="#m16e7e4b49f" y="155.374125"/>
     <use style="fill:#1f77b4;opacity:0.5;stroke:#1f77b4;" x="358.299893" xlink:href="#m16e7e4b49f" y="155.374125"/>
     <use style="fill:#1f77b4;opacity:0.5;stroke:#1f77b4;" x="361.322747" xlink:href="#m16e7e4b49f" y="155.374125"/>
     <use style="fill:#1f77b4;opacity:0.5;stroke:#1f77b4;" x="364.345601" xlink:href="#m16e7e4b49f" y="155.374125"/>
     <use style="fill:#1f77b4;opacity:0.5;stroke:#1f77b4;" x="367.368455" xlink:href="#m16e7e4b49f" y="155.374125"/>
     <use style="fill:#1f77b4;opacity:0.5;stroke:#1f77b4;" x="370.39131" xlink:href="#m16e7e4b49f" y="155.374125"/>
     <use style="fill:#1f77b4;opacity:0.5;stroke:#1f77b4;" x="373.414164" xlink:href="#m16e7e4b49f" y="155.374125"/>
     <use style="fill:#1f77b4;opacity:0.5;stroke:#1f77b4;" x="376.437018" xlink:href="#m16e7e4b49f" y="155.374125"/>
     <use style="fill:#1f77b4;opacity:0.5;stroke:#1f77b4;" x="379.459872" xlink:href="#m16e7e4b49f" y="155.374125"/>
     <use style="fill:#1f77b4;opacity:0.5;stroke:#1f77b4;" x="382.482726" xlink:href="#m16e7e4b49f" y="155.374125"/>
     <use style="fill:#1f77b4;opacity:0.5;stroke:#1f77b4;" x="385.505581" xlink:href="#m16e7e4b49f" y="155.374125"/>
     <use style="fill:#1f77b4;opacity:0.5;stroke:#1f77b4;" x="388.528435" xlink:href="#m16e7e4b49f" y="155.374125"/>
     <use style="fill:#1f77b4;opacity:0.5;stroke:#1f77b4;" x="391.551289" xlink:href="#m16e7e4b49f" y="155.374125"/>
     <use style="fill:#1f77b4;opacity:0.5;stroke:#1f77b4;" x="394.574143" xlink:href="#m16e7e4b49f" y="155.374125"/>
     <use style="fill:#1f77b4;opacity:0.5;stroke:#1f77b4;" x="397.596998" xlink:href="#m16e7e4b49f" y="155.374125"/>
    </g>
   </g>
   <g id="line2d_13">
    <path clip-path="url(#p51475da24e)" d="M 74.756165 155.374125 
L 399.41071 155.374125 
L 399.41071 155.374125 
" style="fill:none;stroke:#ff7f0e;stroke-dasharray:1.5,2.475;stroke-dashoffset:0;stroke-width:1.5;"/>
   </g>
   <g id="patch_3">
    <path d="M 58.523438 288.430125 
L 58.523438 22.318125 
" style="fill:none;stroke:#000000;stroke-linecap:square;stroke-linejoin:miter;stroke-width:0.8;"/>
   </g>
   <g id="patch_4">
    <path d="M 415.643438 288.430125 
L 415.643438 22.318125 
" style="fill:none;stroke:#000000;stroke-linecap:square;stroke-linejoin:miter;stroke-width:0.8;"/>
   </g>
   <g id="patch_5">
    <path d="M 58.523438 288.430125 
L 415.643438 288.430125 
" style="fill:none;stroke:#000000;stroke-linecap:square;stroke-linejoin:miter;stroke-width:0.8;"/>
   </g>
   <g id="patch_6">
    <path d="M 58.523438 22.318125 
L 415.643438 22.318125 
" style="fill:none;stroke:#000000;stroke-linecap:square;stroke-linejoin:miter;stroke-width:0.8;"/>
   </g>
   <g id="text_14">
    <!-- schoolStrike.mp4 masks -->
    <defs>
     <path d="M 48.78125 52.59375 
L 48.78125 44.1875 
Q 44.96875 46.296875 41.140625 47.34375 
Q 37.3125 48.390625 33.40625 48.390625 
Q 24.65625 48.390625 19.8125 42.84375 
Q 14.984375 37.3125 14.984375 27.296875 
Q 14.984375 17.28125 19.8125 11.734375 
Q 24.65625 6.203125 33.40625 6.203125 
Q 37.3125 6.203125 41.140625 7.25 
Q 44.96875 8.296875 48.78125 10.40625 
L 48.78125 2.09375 
Q 45.015625 0.34375 40.984375 -0.53125 
Q 36.96875 -1.421875 32.421875 -1.421875 
Q 20.0625 -1.421875 12.78125 6.34375 
Q 5.515625 14.109375 5.515625 27.296875 
Q 5.515625 40.671875 12.859375 48.328125 
Q 20.21875 56 33.015625 56 
Q 37.15625 56 41.109375 55.140625 
Q 45.0625 54.296875 48.78125 52.59375 
z
" id="DejaVuSans-63"/>
     <path d="M 54.890625 33.015625 
L 54.890625 0 
L 45.90625 0 
L 45.90625 32.71875 
Q 45.90625 40.484375 42.875 44.328125 
Q 39.84375 48.1875 33.796875 48.1875 
Q 26.515625 48.1875 22.3125 43.546875 
Q 18.109375 38.921875 18.109375 30.90625 
L 18.109375 0 
L 9.078125 0 
L 9.078125 75.984375 
L 18.109375 75.984375 
L 18.109375 46.1875 
Q 21.34375 51.125 25.703125 53.5625 
Q 30.078125 56 35.796875 56 
Q 45.21875 56 50.046875 50.171875 
Q 54.890625 44.34375 54.890625 33.015625 
z
" id="DejaVuSans-68"/>
     <path d="M 30.609375 48.390625 
Q 23.390625 48.390625 19.1875 42.75 
Q 14.984375 37.109375 14.984375 27.296875 
Q 14.984375 17.484375 19.15625 11.84375 
Q 23.34375 6.203125 30.609375 6.203125 
Q 37.796875 6.203125 41.984375 11.859375 
Q 46.1875 17.53125 46.1875 27.296875 
Q 46.1875 37.015625 41.984375 42.703125 
Q 37.796875 48.390625 30.609375 48.390625 
z
M 30.609375 56 
Q 42.328125 56 49.015625 48.375 
Q 55.71875 40.765625 55.71875 27.296875 
Q 55.71875 13.875 49.015625 6.21875 
Q 42.328125 -1.421875 30.609375 -1.421875 
Q 18.84375 -1.421875 12.171875 6.21875 
Q 5.515625 13.875 5.515625 27.296875 
Q 5.515625 40.765625 12.171875 48.375 
Q 18.84375 56 30.609375 56 
z
" id="DejaVuSans-6f"/>
     <path d="M 9.421875 75.984375 
L 18.40625 75.984375 
L 18.40625 0 
L 9.421875 0 
z
" id="DejaVuSans-6c"/>
     <path d="M 53.515625 70.515625 
L 53.515625 60.890625 
Q 47.90625 63.578125 42.921875 64.890625 
Q 37.9375 66.21875 33.296875 66.21875 
Q 25.25 66.21875 20.875 63.09375 
Q 16.5 59.96875 16.5 54.203125 
Q 16.5 49.359375 19.40625 46.890625 
Q 22.3125 44.4375 30.421875 42.921875 
L 36.375 41.703125 
Q 47.40625 39.59375 52.65625 34.296875 
Q 57.90625 29 57.90625 20.125 
Q 57.90625 9.515625 50.796875 4.046875 
Q 43.703125 -1.421875 29.984375 -1.421875 
Q 24.8125 -1.421875 18.96875 -0.25 
Q 13.140625 0.921875 6.890625 3.21875 
L 6.890625 13.375 
Q 12.890625 10.015625 18.65625 8.296875 
Q 24.421875 6.59375 29.984375 6.59375 
Q 38.421875 6.59375 43.015625 9.90625 
Q 47.609375 13.234375 47.609375 19.390625 
Q 47.609375 24.75 44.3125 27.78125 
Q 41.015625 30.8125 33.5 32.328125 
L 27.484375 33.5 
Q 16.453125 35.6875 11.515625 40.375 
Q 6.59375 45.0625 6.59375 53.421875 
Q 6.59375 63.09375 13.40625 68.65625 
Q 20.21875 74.21875 32.171875 74.21875 
Q 37.3125 74.21875 42.625 73.28125 
Q 47.953125 72.359375 53.515625 70.515625 
z
" id="DejaVuSans-53"/>
     <path d="M 18.3125 70.21875 
L 18.3125 54.6875 
L 36.8125 54.6875 
L 36.8125 47.703125 
L 18.3125 47.703125 
L 18.3125 18.015625 
Q 18.3125 11.328125 20.140625 9.421875 
Q 21.96875 7.515625 27.59375 7.515625 
L 36.8125 7.515625 
L 36.8125 0 
L 27.59375 0 
Q 17.1875 0 13.234375 3.875 
Q 9.28125 7.765625 9.28125 18.015625 
L 9.28125 47.703125 
L 2.6875 47.703125 
L 2.6875 54.6875 
L 9.28125 54.6875 
L 9.28125 70.21875 
z
" id="DejaVuSans-74"/>
     <path d="M 9.421875 54.6875 
L 18.40625 54.6875 
L 18.40625 0 
L 9.421875 0 
z
M 9.421875 75.984375 
L 18.40625 75.984375 
L 18.40625 64.59375 
L 9.421875 64.59375 
z
" id="DejaVuSans-69"/>
     <path d="M 18.109375 8.203125 
L 18.109375 -20.796875 
L 9.078125 -20.796875 
L 9.078125 54.6875 
L 18.109375 54.6875 
L 18.109375 46.390625 
Q 20.953125 51.265625 25.265625 53.625 
Q 29.59375 56 35.59375 56 
Q 45.5625 56 51.78125 48.09375 
Q 58.015625 40.1875 58.015625 27.296875 
Q 58.015625 14.40625 51.78125 6.484375 
Q 45.5625 -1.421875 35.59375 -1.421875 
Q 29.59375 -1.421875 25.265625 0.953125 
Q 20.953125 3.328125 18.109375 8.203125 
z
M 48.6875 27.296875 
Q 48.6875 37.203125 44.609375 42.84375 
Q 40.53125 48.484375 33.40625 48.484375 
Q 26.265625 48.484375 22.1875 42.84375 
Q 18.109375 37.203125 18.109375 27.296875 
Q 18.109375 17.390625 22.1875 11.75 
Q 26.265625 6.109375 33.40625 6.109375 
Q 40.53125 6.109375 44.609375 11.75 
Q 48.6875 17.390625 48.6875 27.296875 
z
" id="DejaVuSans-70"/>
     <path id="DejaVuSans-20"/>
    </defs>
    <g transform="translate(163.857188 16.318125)scale(0.12 -0.12)">
     <use xlink:href="#DejaVuSans-73"/>
     <use x="52.099609" xlink:href="#DejaVuSans-63"/>
     <use x="107.080078" xlink:href="#DejaVuSans-68"/>
     <use x="170.458984" xlink:href="#DejaVuSans-6f"/>
     <use x="231.640625" xlink:href="#DejaVuSans-6f"/>
     <use x="292.822266" xlink:href="#DejaVuSans-6c"/>
     <use x="320.605469" xlink:href="#DejaVuSans-53"/>
     <use x="384.082031" xlink:href="#DejaVuSans-74"/>
     <use x="423.291016" xlink:href="#DejaVuSans-72"/>
     <use x="464.404297" xlink:href="#DejaVuSans-69"/>
     <use x="492.1875" xlink:href="#DejaVuSans-6b"/>
     <use x="550.050781" xlink:href="#DejaVuSans-65"/>
     <use x="611.574219" xlink:href="#DejaVuSans-2e"/>
     <use x="643.361328" xlink:href="#DejaVuSans-6d"/>
     <use x="740.773438" xlink:href="#DejaVuSans-70"/>
     <use x="804.25" xlink:href="#DejaVuSans-34"/>
     <use x="867.873047" xlink:href="#DejaVuSans-20"/>
     <use x="899.660156" xlink:href="#DejaVuSans-6d"/>
     <use x="997.072266" xlink:href="#DejaVuSans-61"/>
     <use x="1058.351562" xlink:href="#DejaVuSans-73"/>
     <use x="1110.451172" xlink:href="#DejaVuSans-6b"/>
     <use x="1168.361328" xlink:href="#DejaVuSans-73"/>
    </g>
   </g>
   <g id="legend_1">
    <g id="patch_7">
     <path d="M 200.140469 352.397575 
L 274.026406 352.397575 
Q 276.026406 352.397575 276.026406 350.397575 
L 276.026406 322.041325 
Q 276.026406 320.041325 274.026406 320.041325 
L 200.140469 320.041325 
Q 198.140469 320.041325 198.140469 322.041325 
L 198.140469 350.397575 
Q 198.140469 352.397575 200.140469 352.397575 
z
" style="fill:#ffffff;opacity:0.8;stroke:#cccccc;stroke-linejoin:miter;"/>
    </g>
    <g id="line2d_14">
     <path d="M 202.140469 328.139762 
L 222.140469 328.139762 
" style="fill:none;opacity:0.5;stroke:#1f77b4;stroke-dasharray:5.55,2.4;stroke-dashoffset:0;stroke-width:1.5;"/>
    </g>
    <g id="line2d_15">
     <g>
      <use style="fill:#1f77b4;opacity:0.5;stroke:#1f77b4;" x="212.140469" xlink:href="#m16e7e4b49f" y="328.139762"/>
     </g>
    </g>
    <g id="text_15">
     <!-- c:5 -->
     <defs>
      <path d="M 11.71875 12.40625 
L 22.015625 12.40625 
L 22.015625 0 
L 11.71875 0 
z
M 11.71875 51.703125 
L 22.015625 51.703125 
L 22.015625 39.3125 
L 11.71875 39.3125 
z
" id="DejaVuSans-3a"/>
     </defs>
     <g transform="translate(230.140469 331.639762)scale(0.1 -0.1)">
      <use xlink:href="#DejaVuSans-63"/>
      <use x="54.980469" xlink:href="#DejaVuSans-3a"/>
      <use x="88.671875" xlink:href="#DejaVuSans-35"/>
     </g>
    </g>
    <g id="line2d_16">
     <path d="M 202.140469 342.817887 
L 222.140469 342.817887 
" style="fill:none;stroke:#ff7f0e;stroke-dasharray:1.5,2.475;stroke-dashoffset:0;stroke-width:1.5;"/>
    </g>
    <g id="line2d_17"/>
    <g id="text_16">
     <!-- baseline -->
     <defs>
      <path d="M 48.6875 27.296875 
Q 48.6875 37.203125 44.609375 42.84375 
Q 40.53125 48.484375 33.40625 48.484375 
Q 26.265625 48.484375 22.1875 42.84375 
Q 18.109375 37.203125 18.109375 27.296875 
Q 18.109375 17.390625 22.1875 11.75 
Q 26.265625 6.109375 33.40625 6.109375 
Q 40.53125 6.109375 44.609375 11.75 
Q 48.6875 17.390625 48.6875 27.296875 
z
M 18.109375 46.390625 
Q 20.953125 51.265625 25.265625 53.625 
Q 29.59375 56 35.59375 56 
Q 45.5625 56 51.78125 48.09375 
Q 58.015625 40.1875 58.015625 27.296875 
Q 58.015625 14.40625 51.78125 6.484375 
Q 45.5625 -1.421875 35.59375 -1.421875 
Q 29.59375 -1.421875 25.265625 0.953125 
Q 20.953125 3.328125 18.109375 8.203125 
L 18.109375 0 
L 9.078125 0 
L 9.078125 75.984375 
L 18.109375 75.984375 
z
" id="DejaVuSans-62"/>
      <path d="M 54.890625 33.015625 
L 54.890625 0 
L 45.90625 0 
L 45.90625 32.71875 
Q 45.90625 40.484375 42.875 44.328125 
Q 39.84375 48.1875 33.796875 48.1875 
Q 26.515625 48.1875 22.3125 43.546875 
Q 18.109375 38.921875 18.109375 30.90625 
L 18.109375 0 
L 9.078125 0 
L 9.078125 54.6875 
L 18.109375 54.6875 
L 18.109375 46.1875 
Q 21.34375 51.125 25.703125 53.5625 
Q 30.078125 56 35.796875 56 
Q 45.21875 56 50.046875 50.171875 
Q 54.890625 44.34375 54.890625 33.015625 
z
" id="DejaVuSans-6e"/>
     </defs>
     <g transform="translate(230.140469 346.317887)scale(0.1 -0.1)">
      <use xlink:href="#DejaVuSans-62"/>
      <use x="63.476562" xlink:href="#DejaVuSans-61"/>
      <use x="124.755859" xlink:href="#DejaVuSans-73"/>
      <use x="176.855469" xlink:href="#DejaVuSans-65"/>
      <use x="238.378906" xlink:href="#DejaVuSans-6c"/>
      <use x="266.162109" xlink:href="#DejaVuSans-69"/>
      <use x="293.945312" xlink:href="#DejaVuSans-6e"/>
      <use x="357.324219" xlink:href="#DejaVuSans-65"/>
     </g>
    </g>
   </g>
  </g>
 </g>
 <defs>
  <clipPath id="p51475da24e">
   <rect height="266.112" width="357.12" x="58.523438" y="22.318125"/>
  </clipPath>
 </defs>
</svg>
